<?xml version="1.0" encoding="UTF-8"?>
<svg version="1.1" xmlns="http://www.w3.org/2000/svg" width="1024" height="1024">
<path d="M0 0 C337.92 0 675.84 0 1024 0 C1024 337.92 1024 675.84 1024 1024 C686.08 1024 348.16 1024 0 1024 C0 686.08 0 348.16 0 0 Z " fill="#F3ACAF" transform="translate(0,0)"/>
<path d="M0 0 C6.60047524 -0.07505006 13.0822316 0.14623962 19.65625 0.734375 C21.55679673 0.89607431 23.45735046 1.0576914 25.35791016 1.21923828 C26.85538788 1.34881927 26.85538788 1.34881927 28.38311768 1.48101807 C51.18440434 3.44873245 74.0026009 5.08771382 96.83789062 6.60449219 C108.38300424 7.37570167 119.91275945 8.21994792 131.43753052 9.25274658 C141.64402097 10.1617196 151.86163967 10.89983671 162.08221436 11.63052368 C165.64820229 11.885601 169.21400785 12.14311881 172.77978516 12.40112305 C183.3810024 13.16750906 193.98261038 13.92828382 204.58473206 14.68205261 C209.8483108 15.0567009 215.11170443 15.43389553 220.375 15.8125 C221.98455063 15.92822861 221.98455063 15.92822861 223.62661743 16.04629517 C239.65840836 17.20360161 255.68351646 18.43711846 271.70703125 19.703125 C273.14643318 19.81677934 273.14643318 19.81677934 274.61491394 19.93272972 C284.25814253 20.69442198 293.90113954 21.45890039 303.54351234 22.23135471 C323.99020401 23.8678728 344.43930741 25.40081753 364.90571022 26.77047539 C379.74052468 27.7635952 394.55966087 28.87077815 409.375 30.125 C412.4227226 30.38011506 415.47052358 30.63426601 418.51837158 30.88787842 C420.43863527 31.04771784 422.35884474 31.20821018 424.2789917 31.3694458 C430.59734849 31.89653485 436.9163079 32.35724823 443.24462891 32.74951172 C445.8931529 32.99028663 448.39773822 33.46601759 451 34 C453.87759497 34.18092663 456.74483783 34.32447372 459.625 34.4375 C484.45786634 35.56001887 509.23417039 37.90202038 534 40 C534.33 40.99 534.66 41.98 535 43 C535.99 43.33 536.98 43.66 538 44 C537.34 44.99 536.68 45.98 536 47 C535.68745622 49.72283905 535.86666572 52.24442486 536 55 C537.18424326 56.41577477 537.18424326 56.41577477 540.5625 56.0625 C542.2640625 56.0315625 542.2640625 56.0315625 544 56 C544.0825 55.2575 544.165 54.515 544.25 53.75 C545.16096373 50.40979966 546.35636147 49.19044335 549 47 C549.721875 46.649375 550.44375 46.29875 551.1875 45.9375 C553.36058256 45.0805106 553.36058256 45.0805106 554 42 C559.29567977 41.47043202 563.78681984 42.74207548 568 46 C568.73046875 48.140625 568.73046875 48.140625 569 50 C569.721875 49.855625 570.44375 49.71125 571.1875 49.5625 C574 50 574 50 575.4453125 51.55859375 C576.69868893 53.33838828 577.88087302 55.13320095 579 57 C578.67 57.66 578.34 58.32 578 59 C575.08482708 57.92598892 573.22189824 57.22189824 571 55 C566.49682877 55.35263785 566.49682877 55.35263785 563 58 C560.375 58.125 560.375 58.125 558 58 C557.67 59.98 557.34 61.96 557 64 C557.99 64 558.98 64 560 64 C560 63.01 560 62.02 560 61 C560.66 61 561.32 61 562 61 C562.6496875 62.2375 562.6496875 62.2375 563.3125 63.5 C564.1478125 64.7375 564.1478125 64.7375 565 66 C567.62694422 66.41780879 567.62694422 66.41780879 570 66 C570.33 66.99 570.66 67.98 571 69 C567.7 69.33 564.4 69.66 561 70 C561 70.66 561 71.32 561 72 C561.71027344 71.98839844 562.42054688 71.97679687 563.15234375 71.96484375 C564.07144531 71.95582031 564.99054687 71.94679688 565.9375 71.9375 C566.85402344 71.92589844 567.77054688 71.91429687 568.71484375 71.90234375 C571 72 571 72 572 73 C573.85772162 72.91015699 575.71247985 72.75388139 577.5625 72.5625 C578.57441406 72.46066406 579.58632813 72.35882813 580.62890625 72.25390625 C581.41136719 72.17011719 582.19382812 72.08632813 583 72 C583.14553599 75.89543877 583.23415059 79.79017651 583.3125 83.6875 C583.35439453 84.79029297 583.39628906 85.89308594 583.43945312 87.02929688 C583.5608921 95.06855724 583.5608921 95.06855724 581.86474609 97.88525391 C580.48046875 99.26953125 580.48046875 99.26953125 578 101 C578.66 102.98 579.32 104.96 580 107 C579.195625 107.2475 578.39125 107.495 577.5625 107.75 C574.84997953 108.7262609 574.84997953 108.7262609 574.125 111.0625 C574.08375 111.701875 574.0425 112.34125 574 113 C575.1043392 114.32420249 575.1043392 114.32420249 577.875 114.1875 C581.16570758 114.25343513 581.16570758 114.25343513 584 112 C586.0450433 116.09008659 585.18488961 121.37990773 585.1875 125.875 C585.19974609 126.97714844 585.21199219 128.07929688 585.22460938 129.21484375 C585.22750977 130.80619141 585.22750977 130.80619141 585.23046875 132.4296875 C585.23457764 133.40147949 585.23868652 134.37327148 585.24291992 135.37451172 C584.9940158 138.06467753 584.37312503 139.69864654 583 142 C583.99 142 584.98 142 586 142 C586 145.96 586 149.92 586 154 C585.01 154.33 584.02 154.66 583 155 C583 155.66 583 156.32 583 157 C584.98 156.505 584.98 156.505 587 156 C587 159.3 587 162.6 587 166 C585.68 166.33 584.36 166.66 583 167 C582.67 167.99 582.34 168.98 582 170 C582.66 170 583.32 170 584 170 C584.33 170.99 584.66 171.98 585 173 C585.99 173.66 586.98 174.32 588 175 C588.29296875 178.2578125 588.29296875 178.2578125 588.1875 182.125 C588.16042969 183.40632812 588.13335938 184.68765625 588.10546875 186.0078125 C588.05326172 187.48894531 588.05326172 187.48894531 588 189 C587.01 189 586.02 189 585 189 C585 190.32 585 191.64 585 193 C585.66 193 586.32 193 587 193 C589.11301129 197.27574049 589.20833291 201.08334697 589.0625 205.75 C588.93060306 210.79139403 589.12569934 215.60895875 589.73950195 220.61621094 C590.21656863 224.98179575 590.37582045 229.36398893 590.5625 233.75 C590.6049585 234.70922363 590.64741699 235.66844727 590.69116211 236.65673828 C590.98926865 243.7765062 591.12101217 250.87372787 591 258 C590.34 258 589.68 258 589 258 C589.2165625 258.53367187 589.433125 259.06734375 589.65625 259.6171875 C591.87898862 265.56507139 592.35617135 270.68125637 592 277 C590.02 277.66 588.04 278.32 586 279 C586 280.65 586 282.3 586 284 C587.98 283.67 589.96 283.34 592 283 C592.29296875 289.0546875 592.29296875 289.0546875 592 291 C591.01 291.66 590.02 292.32 589 293 C588.41651248 295.6556728 588.41651248 295.6556728 588.3125 298.625 C588.24675781 299.62789063 588.18101562 300.63078125 588.11328125 301.6640625 C588.05720703 302.82035156 588.05720703 302.82035156 588 304 C589.65 304.66 591.3 305.32 593 306 C594.03026944 312.69675136 594.10152799 319.2314676 594 326 C593.34 326 592.68 326 592 326 C590.875 319.25 590.875 319.25 592 317 C591.07767578 317.41572266 591.07767578 317.41572266 590.13671875 317.83984375 C589.32847656 318.20207031 588.52023437 318.56429688 587.6875 318.9375 C586.88699219 319.29714844 586.08648438 319.65679687 585.26171875 320.02734375 C583 321 583 321 580 322 C580.061875 323.8871875 580.061875 323.8871875 580.125 325.8125 C580.2390374 329.29064073 580.05925681 329.91111478 578 333 C578.30840599 335.15274948 578.30840599 335.15274948 579 337 C580.89179203 337.6814823 580.89179203 337.6814823 583 338 C583.66 337.34 584.32 336.68 585 336 C584.67801034 332.90073181 584.67801034 332.90073181 584 330 C585.32 329.34 586.64 328.68 588 328 C588.226875 329.11375 588.45375 330.2275 588.6875 331.375 C589.3371875 333.169375 589.3371875 333.169375 590 335 C591.65 335.66 593.3 336.32 595 337 C595 342.61 595 348.22 595 354 C590.71 353.67 586.42 353.34 582 353 C583.02586862 358.12448212 583.02586862 358.12448212 586.3125 362 C589.42421226 363.15784642 590.8773799 363.01274166 594 362 C594.66 361.67 595.32 361.34 596 361 C596 364.63 596 368.26 596 372 C594.865625 372.144375 593.73125 372.28875 592.5625 372.4375 C589.19222799 372.61171478 589.19222799 372.61171478 588 374 C587.95936168 375.66617115 587.957279 377.33388095 588 379 C588.9590625 379.4021875 588.9590625 379.4021875 589.9375 379.8125 C592 381 592 381 593 384 C593.66 384 594.32 384 595 384 C595 383.34 595 382.68 595 382 C594.34 381.34 593.68 380.68 593 380 C594.32 379.67 595.64 379.34 597 379 C597.05799124 382.77076889 597.09359306 386.54142334 597.125 390.3125 C597.14175781 391.38435547 597.15851562 392.45621094 597.17578125 393.56054688 C597.18544922 395.10258789 597.18544922 395.10258789 597.1953125 396.67578125 C597.21102295 398.0975769 597.21102295 398.0975769 597.22705078 399.5480957 C597 402 597 402 595 405 C595.99 405 596.98 405 598 405 C598.4303418 412.68619045 598.85722321 420.37256758 599.28173828 428.05908203 C599.42645527 430.67208168 599.57195441 433.28503813 599.71826172 435.89794922 C599.9288333 439.66102094 600.13656017 443.42424075 600.34375 447.1875 C600.40937134 448.34926758 600.47499268 449.51103516 600.54260254 450.70800781 C600.85775265 456.48258935 601.07414287 462.21685588 601 468 C599.68 468.33 598.36 468.66 597 469 C597.33 469.99 597.66 470.98 598 472 C598.99 472 599.98 472 601 472 C601 473.98 601 475.96 601 478 C600.07316406 478.06058594 599.14632812 478.12117188 598.19140625 478.18359375 C596.39509766 478.30927734 596.39509766 478.30927734 594.5625 478.4375 C593.36753906 478.51871094 592.17257812 478.59992188 590.94140625 478.68359375 C588.11429756 478.67656114 588.11429756 478.67656114 587 480 C586.95919217 481.99958364 586.95745644 484.00045254 587 486 C589.37305578 486.41780879 589.37305578 486.41780879 592 486 C593.71711243 483.55503957 593.71711243 483.55503957 595 481 C595.66 481 596.32 481 597 481 C597 481.99 597 482.98 597 484 C598.65 483.34 600.3 482.68 602 482 C602 485.96 602 489.92 602 494 C601.01 494 600.02 494 599 494 C599 494.66 599 495.32 599 496 C599.99 496 600.98 496 602 496 C602 500.62 602 505.24 602 510 C600.68 510.33 599.36 510.66 598 511 C598.33 511.66 598.66 512.32 599 513 C600.32 513 601.64 513 603 513 C603.76067507 518.50068232 604.18837351 523.88877182 604.31640625 529.4375 C604.33718735 530.20304199 604.35796844 530.96858398 604.37937927 531.75732422 C604.44408136 534.1714698 604.50338541 536.58571181 604.5625 539 C604.60576095 540.64974903 604.64937748 542.29948878 604.69335938 543.94921875 C604.79967969 547.96605033 604.90116345 551.98297759 605 556 C604.01 556 603.02 556 602 556 C602 556.99 602 557.98 602 559 C602.99 559 603.98 559 605 559 C605.1875 562.375 605.1875 562.375 605 566 C604.01 566.66 603.02 567.32 602 568 C601.42251197 569.96361864 601.42251197 569.96361864 601.3125 572.125 C601.1578125 574.043125 601.1578125 574.043125 601 576 C602.65 576.33 604.3 576.66 606 577 C606.93938295 584.56378017 607.12265008 592.00907505 607.0625 599.625 C607.05798828 600.72457031 607.05347656 601.82414063 607.04882812 602.95703125 C607.03717139 605.63808003 607.02081017 608.31900932 607 611 C606.01 611.33 605.02 611.66 604 612 C603.26676204 614.01508358 603.26676204 614.01508358 603 616 C602.071875 615.979375 601.14375 615.95875 600.1875 615.9375 C596.97713989 615.84230396 596.97713989 615.84230396 594 617 C591.66700175 617.03954234 589.33291811 617.04401732 587 617 C586.67 616.01 586.34 615.02 586 614 C585.34 613.67 584.68 613.34 584 613 C583.34 615.31 582.68 617.62 582 620 C582.66 620 583.32 620 584 620 C584.12117187 620.80824219 584.24234375 621.61648438 584.3671875 622.44921875 C584.61855469 624.05216797 584.61855469 624.05216797 584.875 625.6875 C585.03742187 626.74324219 585.19984375 627.79898438 585.3671875 628.88671875 C585.95926615 631.79959951 586.89455905 634.25545696 588 637 C587.625 639.3125 587.625 639.3125 587 641 C587.61875 641.185625 588.2375 641.37125 588.875 641.5625 C592.04935375 643.70985695 592.14585169 646.38629562 593 650 C594.20708564 651.43072341 594.20708564 651.43072341 597.75 651.1875 C601.23584286 651.15615249 603.84479083 650.57760458 607 649 C607.66 649.66 608.32 650.32 609 651 C608.01 651.66 607.02 652.32 606 653 C605.7497843 656.08365871 605.7497843 656.08365871 606 659 C607.32 659.33 608.64 659.66 610 660 C610 667.26 610 674.52 610 682 C608.02 681.34 606.04 680.68 604 680 C601.24934768 679.83142517 601.24934768 679.83142517 599 680 C598.773125 680.78375 598.54625 681.5675 598.3125 682.375 C597 685 597 685 594.4375 686.25 C593.633125 686.4975 592.82875 686.745 592 687 C590.66812207 688.11166864 590.66812207 688.11166864 590.8125 690.9375 C590.66721267 694.10892859 590.66721267 694.10892859 593 696 C595.95769177 696.50010524 595.95769177 696.50010524 599 696 C600.91256712 694.11922127 600.91256712 694.11922127 602 692 C603.32 692.66 604.64 693.32 606 694 C606 694.99 606 695.98 606 697 C606.66 697 607.32 697 608 697 C608.1546875 698.670625 608.1546875 698.670625 608.3125 700.375 C608.539375 701.57125 608.76625 702.7675 609 704 C609.99 704.66 610.98 705.32 612 706 C613.35818967 714.30820529 612.07549612 722.65323899 608 730 C600.86863533 739.5806569 593.67463522 744.66090733 582 747 C577.676504 747.35468805 573.39747098 747.33174371 569.0625 747.25 C567.42764648 747.24226562 567.42764648 747.24226562 565.75976562 747.234375 C558.46922309 747.16506503 551.25555872 746.70339088 544 746 C544.639375 745.731875 545.27875 745.46375 545.9375 745.1875 C548.33131686 744.11332248 548.33131686 744.11332248 549 741 C546.03 741 543.06 741 540 741 C539.67 742.32 539.34 743.64 539 745 C514.83312398 745.13945729 490.70387038 744.79217574 466.54638672 744.13116455 C463.11596824 744.03866166 459.68542136 743.9515249 456.25486469 743.86432266 C426.11179879 743.09536056 426.11179879 743.09536056 413.08073425 742.32872009 C405.849163 741.90882993 398.61876765 741.78874753 391.37698364 741.66897583 C367.5958438 741.26117625 343.83133081 740.40043317 320.0625 739.5625 C290.91938775 738.53533618 261.7777813 737.63914719 232.625 736.9375 C203.73569103 736.24195423 174.86929817 735.30784439 146 734 C146.33 733.34 146.66 732.68 147 732 C147.66 732 148.32 732 149 732 C148.7834375 730.4840625 148.7834375 730.4840625 148.5625 728.9375 C148.04166667 725.29166667 147.52083333 721.64583333 147 718 C143.43434764 717.66632037 143.43434764 717.66632037 140.34375 719.21875 C138.60782909 721.51985446 138.68868806 722.83982544 138.8125 725.6875 C138.83957031 726.49574219 138.86664063 727.30398438 138.89453125 728.13671875 C138.92933594 728.75160156 138.96414063 729.36648438 139 730 C140.32 730.66 141.64 731.32 143 732 C143 732.33 143 732.66 143 733 C139.7 733 136.4 733 133 733 C133.33 732.34 133.66 731.68 134 731 C134.039992 729.00039988 134.04346799 726.99952758 134 725 C131.69 725.33 129.38 725.66 127 726 C125.99782936 729.58327753 125.99782936 729.58327753 127 733 C121.72 733 116.44 733 111 733 C111.33 731.68 111.66 730.36 112 729 C110.35 728.67 108.7 728.34 107 728 C107 729.32 107 730.64 107 732 C105.56344146 732.08131463 104.1255517 732.13933559 102.6875 732.1875 C101.88699219 732.22230469 101.08648437 732.25710938 100.26171875 732.29296875 C97.52148416 731.93801608 96.70828921 731.10633718 95 729 C94.67 729.99 94.34 730.98 94 732 C89.71 732 85.42 732 81 732 C81.66 731.34 82.32 730.68 83 730 C83.24253813 727.78927023 83.24253813 727.78927023 83.125 725.375 C83.10695313 724.55773437 83.08890625 723.74046875 83.0703125 722.8984375 C83.04710937 722.27195312 83.02390625 721.64546875 83 721 C81.30608421 720.52570358 79.61213015 720.05154336 77.91796875 719.578125 C76 719 76 719 73.1875 717.875 C68.771324 716.66271639 64.55036329 716.83812937 60 717 C59.67 718.32 59.34 719.64 59 721 C59.66 721 60.32 721 61 721 C61.66 722.98 62.32 724.96 63 727 C64.65 727.33 66.3 727.66 68 728 C67.67 728.99 67.34 729.98 67 731 C62.71 731 58.42 731 54 731 C54.020625 729.865625 54.04125 728.73125 54.0625 727.5625 C54.41577477 724.18424326 54.41577477 724.18424326 53 723 C50.62694422 722.58219121 50.62694422 722.58219121 48 723 C45.74934898 724.91666921 45.74934898 724.91666921 44 727 C43.67 727 43.34 727 43 727 C42.21113937 714.4032781 41.42836832 701.80619334 40.65309143 689.2086277 C40.29280555 683.35732343 39.93052555 677.50615767 39.56347656 671.65527344 C39.2084675 665.99507939 38.85897303 660.33456796 38.51309204 654.67380905 C38.38106364 652.52826467 38.24714205 650.3828358 38.11117554 648.23753738 C37.47077579 638.11507896 36.87796415 627.99257173 36.73046875 617.84912109 C36.71027176 617.12230448 36.69007477 616.39548786 36.66926575 615.6466465 C36.6512127 611.24168271 37.37956018 608.55026461 40 605 C38.68 605 37.36 605 36 605 C35.45329475 597.39425849 34.91384462 589.78803167 34.38358212 582.18112659 C34.1371179 578.64872671 33.88818358 575.11653758 33.63354492 571.5847168 C33.34072651 567.52182037 33.05876 563.45823349 32.77734375 559.39453125 C32.68468735 558.1297847 32.59203094 556.86503815 32.49656677 555.56196594 C32.41640823 554.38111923 32.33624969 553.20027252 32.25366211 551.98364258 C32.18038193 550.94661697 32.10710175 549.90959137 32.03160095 548.84114075 C32.00059454 546.05345333 32.39565601 543.71038634 33 541 C33 540.01 33 539.02 33 538 C32.67 538 32.34 538 32 538 C30.2542291 515.84289492 28.89962282 493.66594835 27.56620073 471.48103309 C27.25051968 466.23522842 26.93276271 460.98954937 26.61532593 455.74385071 C25.99739864 445.52648477 25.38156961 435.3089934 24.76653612 425.0914529 C24.26543121 416.76726307 23.76346434 408.4431256 23.26098633 400.11901855 C18.53513695 321.82429501 13.8613233 243.52650092 9.22512841 165.22641933 C9.04807855 162.23644459 8.87098455 159.24647247 8.69387627 156.2565012 C8.57725806 154.2876543 8.46064085 152.31880734 8.34402466 150.34996033 C8.25811304 148.89953644 8.25811304 148.89953644 8.17046583 147.41981107 C7.83125909 141.69220207 7.49251457 135.96456594 7.15407836 130.23691136 C6.02920246 111.20441657 4.89294419 92.1727059 3.72843647 73.142591 C3.54865889 70.20299707 3.36929428 67.26337825 3.19008636 64.32374954 C3.13194338 63.37015258 3.0738004 62.41655561 3.01389551 61.43406177 C2.89797496 59.53282786 2.78206875 57.63159308 2.66617727 55.73035741 C2.33293583 50.26867069 1.99662475 44.80718415 1.65790272 39.34583473 C1.45118534 36.00229781 1.24718856 32.65859874 1.04388428 29.31485271 C0.95001117 27.78067833 0.8549804 26.24657423 0.75865173 24.71255207 C0.24143972 16.46860523 -0.1417857 8.26326306 0 0 Z " fill="#EAE8DE" transform="translate(206,189)"/>
<path d="M0 0 C5.90693327 4.8142588 9.71544648 9.79832592 10.8828125 17.48828125 C10.97323489 19.69819713 11.0106967 21.91054998 11.01220703 24.12231445 C11.01393669 24.77150313 11.01566635 25.42069181 11.01744843 26.08955288 C11.0217923 28.2394155 11.01886305 30.38919892 11.015625 32.5390625 C11.01664012 34.06146265 11.01797926 35.58386261 11.0196228 37.10626221 C11.02231536 41.1675726 11.01787547 45.22884467 11.01138306 49.29014969 C11.00782051 51.79514938 11.00619644 54.30014336 11.00512695 56.80514526 C10.99206067 81.37687046 10.7797261 105.93050057 9.8828125 130.48828125 C-15.77969839 129.58667247 -15.77969839 129.58667247 -28.4921875 128.98828125 C-29.29817383 128.9529126 -30.10416016 128.91754395 -30.93457031 128.88110352 C-33.8511118 128.7376619 -36.68871589 128.57448616 -39.5552063 127.99777222 C-42.0634353 127.49897074 -44.47369789 127.23868924 -47.02294922 127.05517578 C-47.97781219 126.98485138 -48.93267517 126.91452698 -49.91647339 126.84207153 C-50.94950592 126.76914886 -51.98253845 126.6962262 -53.046875 126.62109375 C-54.14589142 126.54083954 -55.24490784 126.46058533 -56.37722778 126.37789917 C-59.91534027 126.12006769 -63.45374052 125.866477 -66.9921875 125.61328125 C-71.55217839 125.28385725 -76.11203933 124.95265866 -80.671875 124.62109375 C-81.87092468 124.53413742 -83.06997437 124.44718109 -84.30535889 124.35758972 C-94.49741394 123.61496021 -104.68635935 122.83474931 -114.875 122.046875 C-128.45436281 120.99686864 -142.0349183 119.96485604 -155.6171875 118.953125 C-157.32439242 118.82581549 -159.0315966 118.69849616 -160.73880005 118.57116699 C-167.6073691 118.05907295 -174.47597264 117.54745076 -181.34472656 117.0378418 C-186.47732376 116.65690702 -191.60981416 116.27456423 -196.7421875 115.890625 C-197.56973352 115.82872356 -198.39727955 115.76682213 -199.24990273 115.70304489 C-208.31932868 115.02286608 -217.38352708 114.31406887 -226.44140625 113.4921875 C-243.31312449 111.96838218 -260.22236489 110.87569393 -277.12017822 109.68615723 C-285.41752815 109.10176826 -293.71465113 108.5141632 -302.01171875 107.92578125 C-302.9061179 107.86238556 -303.80051704 107.79898987 -304.7220192 107.7336731 C-316.92417754 106.86795477 -329.12278349 105.96665785 -341.31860352 105.01538086 C-349.91949585 104.34541146 -358.52222388 103.69993304 -367.125 103.0546875 C-367.97170069 102.99116152 -368.81840137 102.92763554 -369.69075966 102.86218452 C-381.95646181 101.94263579 -394.22324287 101.03849333 -406.49080658 100.14414597 C-411.71009312 99.76340619 -416.92926729 99.38112746 -422.14844894 98.99895287 C-426.54871734 98.6769288 -430.94907429 98.35620221 -435.34960938 98.0378418 C-439.7466928 97.71964551 -444.1435175 97.39806073 -448.54019547 97.07431221 C-450.17197106 96.95473717 -451.80383158 96.83631354 -453.4357872 96.71922112 C-464.69825662 95.91035374 -475.90288209 94.80660236 -487.1171875 93.48828125 C-487.1171875 93.15828125 -487.1171875 92.82828125 -487.1171875 92.48828125 C-485.74675293 92.21733643 -485.74675293 92.21733643 -484.34863281 91.94091797 C-466.70262628 88.44659368 -449.07855444 84.88148494 -431.49609375 81.078125 C-422.91832569 79.22382202 -414.33045257 77.41819732 -405.7421875 75.61328125 C-404.12003496 75.27222081 -402.49788327 74.93115634 -400.87573242 74.59008789 C-397.59330224 73.90003492 -394.31082264 73.2102175 -391.02832031 72.52050781 C-386.21135791 71.50825624 -381.39468926 70.49461291 -376.578125 69.48046875 C-375.79638916 69.31587158 -375.01465332 69.15127441 -374.20922852 68.98168945 C-371.84520964 68.48391142 -369.48119727 67.98610254 -367.1171875 67.48828125 C-358.32355996 65.63648898 -349.52990875 63.78481667 -340.73545837 61.93693542 C-320.31639218 57.65136452 -320.31639218 57.65136452 -299.91130066 53.2999115 C-287.74036867 50.68112162 -275.56099583 48.10619777 -263.375 45.55859375 C-261.5108579 45.16864115 -259.64671711 44.77868224 -257.78257751 44.38871765 C-242.10500675 41.10989148 -226.42560232 37.83985693 -210.74609375 34.5703125 C-208.27189596 34.05434866 -205.79769857 33.53838287 -203.32350159 33.02241516 C-200.82439247 32.5012678 -198.32528256 31.98012422 -195.82617188 31.45898438 C-194.58282043 31.19970752 -193.33946898 30.94043066 -192.05844021 30.67329693 C-185.70594309 29.34866473 -179.3533877 28.02431295 -173.00073242 26.70043945 C-166.7004557 25.38745627 -160.40034077 24.07369908 -154.10032463 22.75946617 C-151.75389267 22.27012344 -149.40740528 21.7810464 -147.06085396 21.29227638 C-133.23730978 18.41279392 -119.42245822 15.49604955 -105.61840153 12.5244112 C-95.25705389 10.29518577 -84.8776132 8.16170617 -74.49050903 6.05639648 C-65.57125424 4.24697957 -56.66320727 2.40713072 -47.78125 0.421875 C-46.29326107 0.09279965 -44.80522485 -0.23606193 -43.31713867 -0.56469727 C-40.57386875 -1.17069607 -37.8355761 -1.79452504 -35.09887695 -2.42944336 C-23.42412521 -5.00895134 -10.30119222 -7.35527932 0 0 Z " fill="#FBD6B3" transform="translate(694.1171875,95.51171875)"/>
<path d="M0 0 C12.96934744 9.90199384 23.02274687 24.44608397 28 40 C28.21914063 39.33355469 28.43828125 38.66710937 28.6640625 37.98046875 C34.97234748 19.6454128 45.44654188 4.88678209 63 -4 C71.01679774 -7.33180388 81.45224102 -7.3338874 89.859375 -5.3125 C92.07237289 -4.37079877 93.98758707 -3.31472268 96 -2 C96.77730469 -1.51789063 97.55460938 -1.03578125 98.35546875 -0.5390625 C112.97981359 8.86059797 123.5494882 23.02696971 128 40 C130.20447547 65.99230378 119.97643911 86.88693175 103.75390625 106.6640625 C97.94162127 113.50549377 91.71599839 120.03999095 85 126 C84.34 126 83.68 126 83 126 C82.67 126.99 82.34 127.98 82 129 C79.953125 130.91015625 79.953125 130.91015625 77.25 133.0625 C76.25613281 133.85527344 75.26226563 134.64804687 74.23828125 135.46484375 C73.15962565 136.31088036 72.08018356 137.15591509 71 138 C70.46165527 138.42297363 69.92331055 138.84594727 69.36865234 139.28173828 C59.11730326 147.32087373 48.61538296 154.75699596 37.5 161.5625 C36.62730469 162.10068359 35.75460937 162.63886719 34.85546875 163.19335938 C33.11181173 164.26667714 31.3644552 165.33401028 29.61328125 166.39501953 C27.82323465 167.49439979 26.0503007 168.62199822 24.29296875 169.77294922 C23.42285156 170.33127441 22.55273438 170.88959961 21.65625 171.46484375 C20.88087891 171.97523193 20.10550781 172.48562012 19.30664062 173.01147461 C16.37696837 174.26700413 14.99590694 173.99553056 12 173 C10.13818359 171.92773438 10.13818359 171.92773438 8.3984375 170.59375 C7.74891113 170.10173096 7.09938477 169.60971191 6.43017578 169.1027832 C5.75196777 168.57386475 5.07375977 168.04494629 4.375 167.5 C3.31321533 166.68631958 3.31321533 166.68631958 2.22998047 165.85620117 C0.14352302 164.24957686 -1.93088982 162.6288849 -4 161 C-4.54591797 160.57025879 -5.09183594 160.14051758 -5.65429688 159.69775391 C-11.47588918 155.08293714 -17.0672649 150.23661982 -22.55078125 145.2265625 C-24.13548535 143.78592241 -25.73623839 142.3626593 -27.35546875 140.9609375 C-51.05338443 120.31707621 -78.16432212 88.27393611 -82 56 C-83.18566111 36.14017642 -80.54705243 21.34011115 -67.5625 5.6875 C-48.852492 -14.68561982 -22.21263228 -15.65126395 0 0 Z " fill="#F46057" transform="translate(495,482)"/>
<path d="M0 0 C2.66010313 2.66010313 2.38247945 4.18481537 2.6328125 7.90625 C2.7167627 9.11772705 2.80071289 10.3292041 2.88720703 11.57739258 C3.00491455 13.51908325 3.00491455 13.51908325 3.125 15.5 C3.20991699 16.80670654 3.29483398 18.11341309 3.38232422 19.4597168 C3.98682204 29.31959923 4.23792751 39.12600818 4 49 C2.35 48.67 0.7 48.34 -1 48 C-1.25 42.375 -1.25 42.375 1 39 C0.01 39.495 0.01 39.495 -1 40 C-4.98004181 41.3266806 -7.80281841 41.33848239 -12 41 C-14 39.875 -14 39.875 -15 38 C-15.1875 34.8125 -15.1875 34.8125 -15 32 C-16.32 31.67 -17.64 31.34 -19 31 C-20.125 27.25 -20.125 27.25 -19 25 C-19.29648437 24.42765625 -19.59296875 23.8553125 -19.8984375 23.265625 C-21.29880632 20.38543381 -21.41722918 17.93581917 -21.625 14.75 C-21.69976563 13.67234375 -21.77453125 12.5946875 -21.8515625 11.484375 C-21.90054688 10.66453125 -21.94953125 9.8446875 -22 9 C-22.66 9 -23.32 9 -24 9 C-23.125 4.25 -23.125 4.25 -22 2 C-21.01 2.33 -20.02 2.66 -19 3 C-19 3.99 -19 4.98 -19 6 C-17.4840625 5.7834375 -17.4840625 5.7834375 -15.9375 5.5625 C-13.9884375 5.2840625 -13.9884375 5.2840625 -12 5 C-10.1128125 4.690625 -10.1128125 4.690625 -8.1875 4.375 C-5 4 -5 4 -3 5 C-2.87625 4.360625 -2.7525 3.72125 -2.625 3.0625 C-2.315625 2.0415625 -2.315625 2.0415625 -2 1 C-1.34 0.67 -0.68 0.34 0 0 Z " fill="#FAD6B4" transform="translate(812,800)"/>
<path d="M0 0 C1.32 0 2.64 0 4 0 C4.33 1.98 4.66 3.96 5 6 C5.99 6.33 6.98 6.66 8 7 C7.67 7.99 7.34 8.98 7 10 C7.66 10.33 8.32 10.66 9 11 C5.59643557 29.41480754 -2.9916375 44.76881295 -15 59 C-16.32 58.34 -17.64 57.68 -19 57 C-19 56.01 -19 55.02 -19 54 C-18.34 54 -17.68 54 -17 54 C-17 53.34 -17 52.68 -17 52 C-16.01 52 -15.02 52 -14 52 C-13.96261719 51.28714844 -13.92523437 50.57429687 -13.88671875 49.83984375 C-13.28352647 41.05216008 -13.28352647 41.05216008 -11.4375 37.125 C-9.83022585 34.20422108 -9.83022585 34.20422108 -10 31.5625 C-10 27.65654334 -8.4659644 24.60382915 -7 21 C-7.99 20.67 -8.98 20.34 -10 20 C-10 19.34 -10 18.68 -10 18 C-11.65 18 -13.3 18 -15 18 C-14.67 16.35 -14.34 14.7 -14 13 C-12.68 13 -11.36 13 -10 13 C-9.67 13.66 -9.34 14.32 -9 15 C-6.55519921 14.81171228 -6.55519921 14.81171228 -4 14 C-2.70834575 12.25160856 -2.70834575 12.25160856 -2 10 C-1.608125 9.175 -1.21625 8.35 -0.8125 7.5 C0.07636241 4.76503874 -0.14197548 3.66940962 -1 1 C-0.67 0.67 -0.34 0.34 0 0 Z " fill="#F4665E" transform="translate(614,529)"/>
<path d="M0 0 C1.65 0 3.3 0 5 0 C5.185625 0.78375 5.37125 1.5675 5.5625 2.375 C6.036875 3.24125 6.51125 4.1075 7 5 C8.60987265 5.40246816 10.22274722 5.79615059 11.84765625 6.1328125 C16.67499232 8.0777646 20.32782088 12.40909648 24 16 C21.66666667 18.33333333 19.33333333 20.66666667 17 23 C12.86169011 22.69903201 10.48152976 22.32101984 7 20 C7.33 23.3 7.66 26.6 8 30 C7.01 30 6.02 30 5 30 C4.34 31.32 3.68 32.64 3 34 C-0.375 34.125 -0.375 34.125 -4 34 C-6 32 -6 32 -6.0625 29.1875 C-6.041875 28.135625 -6.02125 27.08375 -6 26 C-6.268125 25.175 -6.53625 24.35 -6.8125 23.5 C-7.04101615 20.45311795 -6.46419486 19.96846546 -4.5625 17.6875 C-3.2940625 16.3571875 -3.2940625 16.3571875 -2 15 C-2.7425 13.8553125 -2.7425 13.8553125 -3.5 12.6875 C-5 10 -5 10 -5 7 C-4.34 6.67 -3.68 6.34 -3 6 C-3 5.34 -3 4.68 -3 4 C-2.34 4 -1.68 4 -1 4 C-0.67 2.68 -0.34 1.36 0 0 Z " fill="#FBD7B4" transform="translate(786,894)"/>
<path d="M0 0 C2.4375 0.75 2.4375 0.75 4.4375 2.75 C6.42571313 3.14764263 8.42694339 3.48775349 10.4375 3.75 C13.88169134 13.16002278 13.88169134 13.16002278 13.4375 17.75 C8.62788957 19.53962249 5.04353911 20.28457213 0 19.25 C-2.90083697 18.68398303 -5.61412352 18.68143311 -8.5625 18.75 C-8.5625 17.43 -8.5625 16.11 -8.5625 14.75 C-0.8125 13.625 -0.8125 13.625 1.4375 14.75 C-0.40071244 12.54198743 -0.40071244 12.54198743 -3.0625 12.25 C-5.5625 11.75 -5.5625 11.75 -7.5625 9.75 C-7.5625 8.76 -7.5625 7.77 -7.5625 6.75 C-8.2225 6.75 -8.8825 6.75 -9.5625 6.75 C-9.5625 7.74 -9.5625 8.73 -9.5625 9.75 C-10.5525 9.75 -11.5425 9.75 -12.5625 9.75 C-12.2325 7.77 -11.9025 5.79 -11.5625 3.75 C-10.1703125 3.316875 -10.1703125 3.316875 -8.75 2.875 C-0.47332803 -0.04617834 -0.47332803 -0.04617834 0 0 Z " fill="#FAD7B5" transform="translate(775.5625,243.25)"/>
<path d="M0 0 C0.33 0 0.66 0 1 0 C1.33 10.56 1.66 21.12 2 32 C0.68 31.34 -0.64 30.68 -2 30 C-2 27.69 -2 25.38 -2 23 C-2.66 23 -3.32 23 -4 23 C-4.28875 22.360625 -4.5775 21.72125 -4.875 21.0625 C-5.82823451 18.84793921 -5.82823451 18.84793921 -8 18 C-8.309375 18.639375 -8.61875 19.27875 -8.9375 19.9375 C-10 22 -10 22 -11 23 C-16.24050633 23.4556962 -16.24050633 23.4556962 -18.875 21.875 C-20.52854531 19.11909116 -20.39365568 17.14924548 -20 14 C-18.75 12.125 -18.75 12.125 -17 11 C-15.68 11 -14.36 11 -13 11 C-12.855625 10.195625 -12.71125 9.39125 -12.5625 8.5625 C-12 6 -12 6 -11 5 C-8.96875 5.0859375 -8.96875 5.0859375 -6.5 5.375 C-5.6853125 5.46523438 -4.870625 5.55546875 -4.03125 5.6484375 C-2 6 -2 6 -1 7 C-0.67 4.69 -0.34 2.38 0 0 Z " fill="#FAD7B5" transform="translate(816,863)"/>
<path d="M0 0 C1.30324219 0.13341797 1.30324219 0.13341797 2.6328125 0.26953125 C3.49648438 0.34558594 4.36015625 0.42164063 5.25 0.5 C8.13614216 1.16983673 9.65610373 1.99969307 11.7578125 4.08203125 C12.0078125 7.76953125 12.0078125 7.76953125 11.7578125 11.08203125 C13.4284375 11.48421875 13.4284375 11.48421875 15.1328125 11.89453125 C18.7578125 13.08203125 18.7578125 13.08203125 20.7578125 16.08203125 C20.5703125 19.14453125 20.5703125 19.14453125 19.7578125 22.08203125 C16.05365957 24.55146654 14.13636745 24.55116214 9.7578125 24.08203125 C7.2515705 21.89917532 6.80110647 20.7025782 6.5703125 17.39453125 C6.6321875 16.63140625 6.6940625 15.86828125 6.7578125 15.08203125 C6.7578125 14.75203125 6.7578125 14.42203125 6.7578125 14.08203125 C5.4275 13.92734375 5.4275 13.92734375 4.0703125 13.76953125 C0.51001898 13.03060241 -1.54542256 12.54084634 -4.2421875 10.08203125 C-4.81673565 7.19152095 -4.57582174 5.08473942 -4.2421875 2.08203125 C-2.2421875 0.08203125 -2.2421875 0.08203125 0 0 Z " fill="#FBD7B4" transform="translate(764.2421875,857.91796875)"/>
<path d="M0 0 C3 0.25 3 0.25 5 2.25 C5 3.24 5 4.23 5 5.25 C5.99 5.58 6.98 5.91 8 6.25 C6.61215609 13.36270006 1.62679021 16.63024611 -3.94140625 20.65234375 C-5.75 21.8125 -5.75 21.8125 -9 23.25 C-12.45110784 22.41054134 -12.98768233 21.2684765 -15 18.25 C-14.6875 15.375 -14.6875 15.375 -14 12.25 C-13.814375 11.30125 -13.62875 10.3525 -13.4375 9.375 C-13.293125 8.67375 -13.14875 7.9725 -13 7.25 C-12.01 6.92 -11.02 6.59 -10 6.25 C-9.67 5.26 -9.34 4.27 -9 3.25 C-7.0625 2.6875 -7.0625 2.6875 -5 2.25 C-3 0.25 -3 0.25 0 0 Z " fill="#FBD7B4" transform="translate(804,843.75)"/>
<path d="M0 0 C1.91635217 -0.05423638 3.83314925 -0.09289963 5.75 -0.125 C7.35101563 -0.15980469 7.35101563 -0.15980469 8.984375 -0.1953125 C11.97339623 -0.00172304 13.46927939 0.49721006 16 2 C16.845625 2.309375 17.69125 2.61875 18.5625 2.9375 C21.14889513 4.064903 22.45386604 4.64011132 24 7 C24.375 10.5625 24.375 10.5625 24 14 C20.50663182 16.32891212 19.13992135 16.23551143 15.01953125 16.1953125 C13.27446289 16.18564453 13.27446289 16.18564453 11.49414062 16.17578125 C10.27919922 16.15902344 9.06425781 16.14226563 7.8125 16.125 C6.58595703 16.11597656 5.35941406 16.10695313 4.09570312 16.09765625 C1.06360705 16.07406017 -1.96809938 16.04113841 -5 16 C-5 15.67 -5 15.34 -5 15 C-1.04 15 2.92 15 7 15 C7 14.34 7 13.68 7 13 C6.195625 12.690625 5.39125 12.38125 4.5625 12.0625 C2 11 2 11 1 10 C0.95936168 8.33382885 0.957279 6.66611905 1 5 C0.34 5 -0.32 5 -1 5 C-0.67 3.35 -0.34 1.7 0 0 Z " fill="#FBD6B4" transform="translate(266,905)"/>
<path d="M0 0 C2.875 -0.125 2.875 -0.125 6 0 C8 2 8 2 8 5 C8.78375 5.103125 9.5675 5.20625 10.375 5.3125 C13 6 13 6 15 9 C15.19932094 13.18573976 15.33808088 16.98575735 14 21 C13.01 21 12.02 21 11 21 C11 20.34 11 19.68 11 19 C7.58343976 18.83322718 7.58343976 18.83322718 4 19 C3.34 19.66 2.68 20.32 2 21 C-0.84602594 21.36487512 -2.3864306 21.40199375 -4.8125 19.8125 C-6.42525784 17.35092224 -6.4334014 15.88934264 -6 13 C-4.875 11.1875 -4.875 11.1875 -3 10 C0.125 9.75 0.125 9.75 3 10 C3.33 10.33 3.66 10.66 4 11 C4.33 10.34 4.66 9.68 5 9 C4.38125 8.87625 3.7625 8.7525 3.125 8.625 C1 8 1 8 -1 6 C-0.625 2.875 -0.625 2.875 0 0 Z " fill="#FBD7B4" transform="translate(256,865)"/>
<path d="M0 0 C1.32 0.33 2.64 0.66 4 1 C4 1.66 4 2.32 4 3 C4.99 3 5.98 3 7 3 C7.85717813 12.23847544 6.50343635 17.59537655 1 25 C0.61473145 25.52754883 0.22946289 26.05509766 -0.16748047 26.59863281 C-2.728682 30.10471415 -5.34399046 33.56489432 -8 37 C-9.32 36.34 -10.64 35.68 -12 35 C-12 34.01 -12 33.02 -12 32 C-11.34 32 -10.68 32 -10 32 C-10 31.34 -10 30.68 -10 30 C-9.01 30 -8.02 30 -7 30 C-6.96261719 29.28714844 -6.92523437 28.57429687 -6.88671875 27.83984375 C-6.28352647 19.05216008 -6.28352647 19.05216008 -4.4375 15.125 C-2.82587266 12.19475764 -2.82587266 12.19475764 -3 9.5 C-3 5.83961574 -1.55180506 3.29758576 0 0 Z " fill="#FD8887" transform="translate(607,551)"/>
<path d="M0 0 C0 2.97 0 5.94 0 9 C0.99 9 1.98 9 3 9 C3 12.63 3 16.26 3 20 C-2.875 18.125 -2.875 18.125 -4 17 C-4.04080783 15.00041636 -4.04254356 12.99954746 -4 11 C-5.66621425 12.1645201 -5.66621425 12.1645201 -7 14 C-6.835 14.825 -6.67 15.65 -6.5 16.5 C-6 19 -6 19 -7.1875 20.875 C-9 22 -9 22 -11.0625 21.8125 C-13 21 -13 21 -15 19 C-14.6875 17.125 -14.6875 17.125 -14 15 C-13.33978732 12.52420244 -13 10.6621437 -13 8.0625 C-11.5957541 3.76199694 -9.11584134 2.89712955 -5.2265625 0.8828125 C-3 0 -3 0 0 0 Z " fill="#FAD7B5" transform="translate(798,506)"/>
<path d="M0 0 C0.7425 0.2475 1.485 0.495 2.25 0.75 C6.0303864 10.55337491 6.0303864 10.55337491 4.25 14.75 C0.54789441 17.2180704 -2.34112254 17.08179675 -6.625 17.0625 C-7.68654297 17.08666992 -7.68654297 17.08666992 -8.76953125 17.11132812 C-13.29328286 17.11554018 -16.11162295 16.45381353 -19.75 13.75 C-19.4375 11.375 -19.4375 11.375 -18.75 8.75 C-15.52786243 6.60190829 -14.47224599 6.45613847 -10.75 6.75 C-9.75 7.75 -9.75 7.75 -9.625 10.75 C-9.75 13.75 -9.75 13.75 -10.75 14.75 C-8.11 14.75 -5.47 14.75 -2.75 14.75 C-3.74 14.09 -4.73 13.43 -5.75 12.75 C-6.71028287 9.77139805 -6.93245888 6.86838805 -6.75 3.75 C-4.71441009 0.46173937 -3.89311396 -0.35391945 0 0 Z " fill="#F9D7B7" transform="translate(350.75,906.25)"/>
<path d="M0 0 C7.07721931 -0.12109311 13.97195301 0.14626761 21 1 C19.512 5.712 19.512 5.712 17 7.125 C16.34 7.41375 15.68 7.7025 15 8 C14.01 9.485 14.01 9.485 13 11 C12.34 11 11.68 11 11 11 C10.67 12.65 10.34 14.3 10 16 C6.625 16.625 6.625 16.625 3 17 C0.39295102 14.39295102 0.76094667 12.52661759 0.734375 8.97265625 C1 7 1 7 3 4 C2.2575 3.2884375 2.2575 3.2884375 1.5 2.5625 C0 1 0 1 0 0 Z " fill="#FBD6B3" transform="translate(740,229)"/>
<path d="M0 0 C3.4375 0.8125 3.4375 0.8125 5.4375 3.8125 C5.3125 5.875 5.3125 5.875 4.4375 7.8125 C2.3828125 8.93359375 2.3828125 8.93359375 0.4375 9.8125 C0.53289063 10.43898438 0.62828125 11.06546875 0.7265625 11.7109375 C0.83742188 12.52820313 0.94828125 13.34546875 1.0625 14.1875 C1.17851563 14.99960937 1.29453125 15.81171875 1.4140625 16.6484375 C1.42179688 17.36257813 1.42953125 18.07671875 1.4375 18.8125 C-0.5625 20.8125 -0.5625 20.8125 -3.625 21 C-6.5625 20.8125 -6.5625 20.8125 -7.5625 19.8125 C-8.03308824 14.40073529 -8.03308824 14.40073529 -6.0625 11.9375 C-5.5675 11.56625 -5.0725 11.195 -4.5625 10.8125 C-5.078125 10.44125 -5.59375 10.07 -6.125 9.6875 C-7.5625 7.8125 -7.5625 7.8125 -7.4375 4.75 C-6.11369269 0.30578974 -4.52403582 -0.23810715 0 0 Z " fill="#FBD7B5" transform="translate(732.5625,253.1875)"/>
<path d="M0 0 C1.67542976 0.28604898 3.34385343 0.61781233 5 1 C7 6.625 7 6.625 7 10 C6.34 10 5.68 10 5 10 C5 10.66 5 11.32 5 12 C4.38125 12.061875 3.7625 12.12375 3.125 12.1875 C2.42375 12.455625 1.7225 12.72375 1 13 C0.71125 13.763125 0.4225 14.52625 0.125 15.3125 C-1.38885929 18.92894165 -3.7799758 19.89998422 -7 22 C-7 22.99 -7 23.98 -7 25 C-8.65 25 -10.3 25 -12 25 C-11.625 23.0625 -11.625 23.0625 -11 21 C-10.34 20.67 -9.68 20.34 -9 20 C-8.67 19.01 -8.34 18.02 -8 17 C-7.34 17 -6.68 17 -6 17 C-6 16.34 -6 15.68 -6 15 C-6.66 15 -7.32 15 -8 15 C-8 13.02 -8 11.04 -8 9 C-7.34 9 -6.68 9 -6 9 C-5.34 9.66 -4.68 10.32 -4 11 C-3.67 10.01 -3.34 9.02 -3 8 C-0.9375 6.3125 -0.9375 6.3125 1 5 C0.34 3.68 -0.32 2.36 -1 1 C-0.67 0.67 -0.34 0.34 0 0 Z " fill="#FD8786" transform="translate(592,568)"/>
<path d="M0 0 C0.33 0 0.66 0 1 0 C1.67192387 10.0188648 2.15723924 19.95415947 2 30 C1.01 30 0.02 30 -1 30 C-1.33 30.33 -1.66 30.66 -2 31 C-4.9375 31.1875 -4.9375 31.1875 -8 31 C-8.66 30.34 -9.32 29.68 -10 29 C-9.9375 27.0625 -9.9375 27.0625 -9 25 C-6.4375 23.25 -6.4375 23.25 -4 22 C-4.66 20.35 -5.32 18.7 -6 17 C-4.71937515 15.2925002 -3.38232443 13.62626404 -2 12 C-1.34 12 -0.68 12 0 12 C0 8.04 0 4.08 0 0 Z " fill="#FAD6B6" transform="translate(789,273)"/>
<path d="M0 0 C2 3 2 3 1.8125 6 C0.62953368 10.36787565 0.62953368 10.36787565 -2 12 C-4.875 12.5 -4.875 12.5 -8 12 C-10.875 9.75 -10.875 9.75 -13 7 C-13 3 -13 3 -11.6875 1.3125 C-7.84411477 -1.67679962 -4.5217678 -0.98656752 0 0 Z " fill="#FBD7B4" transform="translate(784,831)"/>
<path d="M0 0 C0.99 0.66 1.98 1.32 3 2 C3.2208564 4.95064148 3.28060989 7.68368231 3.1875 10.625 C3.17396484 11.42679688 3.16042969 12.22859375 3.14648438 13.0546875 C3.11109051 15.03674378 3.05728234 17.01845551 3 19 C2.34 19 1.68 19 1 19 C1.33 19.99 1.66 20.98 2 22 C1.34 22 0.68 22 0 22 C-0.226875 21.38125 -0.45375 20.7625 -0.6875 20.125 C-1.83011529 17.76730493 -1.83011529 17.76730493 -4.4375 17.1875 C-7 16 -7 16 -8.875 12.6875 C-9.9720493 9.09161618 -10.16522497 7.4956749 -9 4 C-8.34 5.32 -7.68 6.64 -7 8 C-5.35 7.67 -3.7 7.34 -2 7 C-1.67 5.35 -1.34 3.7 -1 2 C-2.98 2 -4.96 2 -7 2 C-7 1.34 -7 0.68 -7 0 C-4.28569464 -1.35715268 -2.88661718 -0.77445827 0 0 Z " fill="#EBE7DB" transform="translate(811,812)"/>
<path d="M0 0 C0.33 0 0.66 0 1 0 C1.08086376 2.93804996 1.1404283 5.87388075 1.1875 8.8125 C1.21263672 9.64587891 1.23777344 10.47925781 1.26367188 11.33789062 C1.27817383 12.54155273 1.27817383 12.54155273 1.29296875 13.76953125 C1.31653442 14.87711792 1.31653442 14.87711792 1.34057617 16.00708008 C0.90339151 18.56531551 0.05091559 19.45528613 -2 21 C-5.93530669 20.7928786 -8.95489022 19.46900793 -12 17 C-13.3125 13.3125 -13.3125 13.3125 -14 10 C-9.38926889 8.70323188 -5.66159911 9.28890861 -1 10 C-0.67 6.7 -0.34 3.4 0 0 Z " fill="#FAD5B5" transform="translate(801,532)"/>
<path d="M0 0 C1.32 0 2.64 0 4 0 C4.33 1.98 4.66 3.96 5 6 C5.99 6.33 6.98 6.66 8 7 C7.67 7.99 7.34 8.98 7 10 C7.66 10.33 8.32 10.66 9 11 C8.34 13.97 7.68 16.94 7 20 C5.02 19.34 3.04 18.68 1 18 C1 16.68 1 15.36 1 14 C-0.65 14 -2.3 14 -4 14 C-3.71125 13.443125 -3.4225 12.88625 -3.125 12.3125 C-0.30576609 6.85839906 -0.30576609 6.85839906 -1 1 C-0.67 0.67 -0.34 0.34 0 0 Z " fill="#FD8787" transform="translate(614,529)"/>
<path d="M0 0 C3.77258731 0.29019902 6.32665983 0.51657629 9.4375 2.75 C11.32843929 5.47295257 11.58303563 6.75165866 11 10 C9.9375 11.8125 9.9375 11.8125 8 13 C2.09045226 13.63316583 2.09045226 13.63316583 -0.9375 11.875 C-2.49328953 9.12948906 -2.3168479 7.10510946 -2 4 C-1 1.625 -1 1.625 0 0 Z " fill="#FBD7B4" transform="translate(758,894)"/>
<path d="M0 0 C2.31 0 4.62 0 7 0 C8.56430248 3.12860495 8.35627284 5.55602925 8 9 C5.9375 11.4375 5.9375 11.4375 3 13 C-0.75 13.3125 -0.75 13.3125 -4 13 C-5 12 -5 12 -5.25 9.0625 C-5.1675 8.051875 -5.085 7.04125 -5 6 C-4.01 5.34 -3.02 4.68 -2 4 C-0.80767387 1.94996045 -0.80767387 1.94996045 0 0 Z " fill="#FBD7B4" transform="translate(772,417)"/>
<path d="M0 0 C1.21816406 0.03480469 1.21816406 0.03480469 2.4609375 0.0703125 C3.68683594 0.09738281 3.68683594 0.09738281 4.9375 0.125 C5.87722656 0.15980469 5.87722656 0.15980469 6.8359375 0.1953125 C6.8359375 1.5153125 6.8359375 2.8353125 6.8359375 4.1953125 C7.8259375 4.5253125 8.8159375 4.8553125 9.8359375 5.1953125 C9.9609375 7.5703125 9.9609375 7.5703125 9.8359375 10.1953125 C7.8359375 12.1953125 7.8359375 12.1953125 4.7109375 12.3203125 C3.7621875 12.2790625 2.8134375 12.2378125 1.8359375 12.1953125 C1.5059375 11.2053125 1.1759375 10.2153125 0.8359375 9.1953125 C-1.14451809 8.53351403 -1.14451809 8.53351403 -3.1640625 8.1953125 C-4.1640625 7.1953125 -4.1640625 7.1953125 -4.3515625 4.7578125 C-4.11056691 1.46420613 -3.3744587 0.30455403 0 0 Z " fill="#FBD7B4" transform="translate(758.1640625,324.8046875)"/>
<path d="M0 0 C0.33 0.99 0.66 1.98 1 3 C2.98045559 3.66179847 2.98045559 3.66179847 5 4 C5.33 4.33 5.66 4.66 6 5 C5.71269945 7.33944736 5.38063221 9.6739143 5 12 C2.1875 12.6875 2.1875 12.6875 -1 13 C-2.875 11.6875 -2.875 11.6875 -4 10 C-4 9.34 -4 8.68 -4 8 C-4.99 7.67 -5.98 7.34 -7 7 C-8.125 2.25 -8.125 2.25 -7 0 C-3.89953913 -1.03348696 -2.94389782 -1.17755913 0 0 Z " fill="#FBD7B4" transform="translate(285,892)"/>
<path d="M0 0 C2.625 0.375 2.625 0.375 4.375 2.3125 C6.00365602 6.30270724 6.35491747 10.10024545 6.625 14.375 C5.305 14.375 3.985 14.375 2.625 14.375 C2.625 13.715 2.625 13.055 2.625 12.375 C0.645 12.375 -1.335 12.375 -3.375 12.375 C-4.5 10.8125 -4.5 10.8125 -5.375 8.375 C-3.6568854 0.57740296 -3.6568854 0.57740296 0 0 Z " fill="#FBD7B5" transform="translate(758.375,279.625)"/>
<path d="M0 0 C1 1 1 1 1.1328125 3.65234375 C1.13023437 4.73644531 1.12765625 5.82054687 1.125 6.9375 C1.12757813 8.01902344 1.13015625 9.10054687 1.1328125 10.21484375 C1 13 1 13 0 15 C-4.875 14.125 -4.875 14.125 -6 13 C-5.9175 12.05125 -5.835 11.1025 -5.75 10.125 C-5.8325 9.09375 -5.915 8.0625 -6 7 C-8.42672567 5.21030974 -8.42672567 5.21030974 -11 4 C-11 3.34 -11 2.68 -11 2 C-10.01 2 -9.02 2 -8 2 C-8 1.34 -8 0.68 -8 0 C-5.11795733 -1.44102133 -3.08226581 -0.65580124 0 0 Z " fill="#FAD8B5" transform="translate(788,775)"/>
<path d="M0 0 C2.625 0.3125 2.625 0.3125 4.4375 2 C5.84492268 4.74077048 6.09273289 6.27223624 5.625 9.3125 C4.4375 11.1875 4.4375 11.1875 2.625 12.3125 C-0.85532201 12.05147585 -2.42596298 11.27852468 -5.375 9.3125 C-6.365 9.3125 -7.355 9.3125 -8.375 9.3125 C-8.375 7.9925 -8.375 6.6725 -8.375 5.3125 C-7.055 5.3125 -5.735 5.3125 -4.375 5.3125 C-4.230625 4.673125 -4.08625 4.03375 -3.9375 3.375 C-3.15194449 0.49462981 -3.00567085 0.39548301 0 0 Z " fill="#FBD7B5" transform="translate(735.375,280.6875)"/>
<path d="M0 0 C2.5 0.0625 2.5 0.0625 5 1 C6.97197576 4.45095757 7.4550612 8.09460525 8 12 C5.36 13.98 2.72 15.96 0 18 C0 17.34 0 16.68 0 16 C-1.32 16 -2.64 16 -4 16 C-4 15.01 -4 14.02 -4 13 C-3.360625 12.896875 -2.72125 12.79375 -2.0625 12.6875 C-1.0415625 12.3471875 -1.0415625 12.3471875 0 12 C0.33 11.01 0.66 10.02 1 9 C1.66 9 2.32 9 3 9 C3 8.34 3 7.68 3 7 C1.68 7 0.36 7 -1 7 C-1.625 4.625 -1.625 4.625 -2 2 C-1.34 1.34 -0.68 0.68 0 0 Z " fill="#FC8887" transform="translate(564,603)"/>
<path d="M0 0 C2.475 0.495 2.475 0.495 5 1 C3.67879172 3.93230193 2.25361803 5.98664899 -0.0390625 8.234375 C-0.90917969 9.09482422 -0.90917969 9.09482422 -1.796875 9.97265625 C-2.40015625 10.55917969 -3.0034375 11.14570312 -3.625 11.75 C-4.23601563 12.35199219 -4.84703125 12.95398438 -5.4765625 13.57421875 C-6.97988624 15.05405305 -8.48934856 16.52764676 -10 18 C-10.66 17.67 -11.32 17.34 -12 17 C-12 16.01 -12 15.02 -12 14 C-12.99 14 -13.98 14 -15 14 C-15 13.01 -15 12.02 -15 11 C-14.2575 10.731875 -13.515 10.46375 -12.75 10.1875 C-9.98725443 9.12651121 -9.98725443 9.12651121 -7.875 7.375 C-6 6 -6 6 -3 6 C-2.67 5.01 -2.34 4.02 -2 3 C-1.34 2.67 -0.68 2.34 0 2 C0 1.34 0 0.68 0 0 Z " fill="#FD8887" transform="translate(592,588)"/>
<path d="M0 0 C3.16115776 1.36983503 3.9927092 1.9890638 6 5 C6.25 7.5625 6.25 7.5625 6 10 C4 12 4 12 1.375 12.125 C0.59125 12.08375 -0.1925 12.0425 -1 12 C-1.66 10.68 -2.32 9.36 -3 8 C-4.32 8.33 -5.64 8.66 -7 9 C-7 7.68 -7 6.36 -7 5 C-5.46875 3.515625 -5.46875 3.515625 -3.5 2.25 C-2.8503125 1.82203125 -2.200625 1.3940625 -1.53125 0.953125 C-1.0259375 0.63859375 -0.520625 0.3240625 0 0 Z " fill="#FBD7B4" transform="translate(723,236)"/>
<path d="M0 0 C3 1 3 1 4.25 3.25 C5.08284597 6.30376855 4.91670314 7.99988063 4 11 C2.02861773 12.97138227 -1.35702623 12.68642684 -4 13 C-5.32 13 -6.64 13 -8 13 C-8 12.01 -8 11.02 -8 10 C-7.34 10 -6.68 10 -6 10 C-6.061875 9.21625 -6.12375 8.4325 -6.1875 7.625 C-6.125625 6.75875 -6.06375 5.8925 -6 5 C-3 3 -3 3 0 3 C0 2.01 0 1.02 0 0 Z " fill="#FBD7B5" transform="translate(757,400)"/>
<path d="M0 0 C2.6875 0.5 2.6875 0.5 5.5625 3.1875 C7.6875 6.5 7.6875 6.5 7.5625 9.3125 C6.6875 11.5 6.6875 11.5 5.6875 12.5 C3.4375 12.875 3.4375 12.875 0.6875 12.5 C-2.37873101 10.11515366 -4.11517527 8.71213766 -4.75 4.8125 C-4.14468545 1.61298022 -3.17378525 0.68622384 0 0 Z " fill="#FBD7B4" transform="translate(791.3125,618.5)"/>
<path d="M0 0 C0.33 1.65 0.66 3.3 1 5 C-0.98 5.99 -0.98 5.99 -3 7 C-3 6.01 -3 5.02 -3 4 C-3.66 4 -4.32 4 -5 4 C-5.12375 4.61875 -5.2475 5.2375 -5.375 5.875 C-6 8 -6 8 -8 10 C-10.5625 10.1875 -10.5625 10.1875 -13 10 C-14 9 -14 9 -14.1875 6.0625 C-14 3 -14 3 -12 1 C-7.96964009 0.23955473 -4.09797785 -0.12418115 0 0 Z " fill="#FBD7B4" transform="translate(806,666)"/>
<path d="M0 0 C0.33 0 0.66 0 1 0 C1.05391993 1.79133978 1.09275571 3.58313899 1.125 5.375 C1.14820313 6.37273438 1.17140625 7.37046875 1.1953125 8.3984375 C1 11 1 11 -1 13 C-1 14.32 -1 15.64 -1 17 C-1.99 16.67 -2.98 16.34 -4 16 C-4 15.01 -4 14.02 -4 13 C-4.639375 12.855625 -5.27875 12.71125 -5.9375 12.5625 C-8 12 -8 12 -9 11 C-9.1875 8.5625 -9.1875 8.5625 -9 6 C-6.4345406 3.4345406 -4.52313332 3.45953913 -1 3 C-0.67 2.01 -0.34 1.02 0 0 Z " fill="#FAD6B6" transform="translate(802,557)"/>
<path d="M0 0 C0.66 0 1.32 0 2 0 C2 1.32 2 2.64 2 4 C3.32 4.33 4.64 4.66 6 5 C5.67 7.31 5.34 9.62 5 12 C5.66 12 6.32 12 7 12 C7 12.99 7 13.98 7 15 C-0.75 14.25 -0.75 14.25 -3 12 C-3.38532987 8.33936619 -2.79378775 6.1655078 -1 3 C-0.67 2.01 -0.34 1.02 0 0 Z " fill="#FBD7B4" transform="translate(371,901)"/>
<path d="M0 0 C0.33 0 0.66 0 1 0 C2.19148936 19.34042553 2.19148936 19.34042553 2 29 C1.67 29 1.34 29 1 29 C1 26.36 1 23.72 1 21 C0.195625 20.855625 -0.60875 20.71125 -1.4375 20.5625 C-4 20 -4 20 -5 19 C-5.01953125 16.56640625 -5.01953125 16.56640625 -4.8125 13.5625 C-4.75707031 12.57378906 -4.70164062 11.58507812 -4.64453125 10.56640625 C-4 8 -4 8 -1.94921875 6.65234375 C-1.30597656 6.43707031 -0.66273438 6.22179687 0 6 C0 4.02 0 2.04 0 0 Z " fill="#F8D6B8" transform="translate(798,474)"/>
<path d="M0 0 C2.375 -0.125 2.375 -0.125 5 0 C5.66 0.66 6.32 1.32 7 2 C6.625 5.625 6.625 5.625 6 9 C2.37 9 -1.26 9 -5 9 C-4.67 7.35 -4.34 5.7 -4 4 C-3.34 4 -2.68 4 -2 4 C-1.34 2.68 -0.68 1.36 0 0 Z " fill="#FBD7B4" transform="translate(254,911)"/>
<path d="M0 0 C0.66 0.66 1.32 1.32 2 2 C1.8125 5 1.8125 5 1 8 C-2 10 -2 10 -4.625 9.6875 C-7 9 -7 9 -8 8 C-8.25 5.0625 -8.25 5.0625 -8 2 C-4.77626323 -0.14915785 -3.73296326 -0.38286803 0 0 Z " fill="#FAD8B5" transform="translate(786,265)"/>
<path d="M0 0 C2.625 0.375 2.625 0.375 4.5 2.5625 C5.76867764 5.73419409 5.63334883 7.16661737 4.625 10.375 C2.875 11.125 2.875 11.125 0.625 11.375 C-1.625 9.8125 -1.625 9.8125 -3.375 7.375 C-3.6875 4.1875 -3.6875 4.1875 -3.375 1.375 C-2.375 0.375 -2.375 0.375 0 0 Z " fill="#FBD7B4" transform="translate(759.375,822.625)"/>
<path d="M0 0 C2.5 0.25 2.5 0.25 4.5 2.25 C4.86796448 5.12012296 4.87509409 6.65774618 3.3125 9.125 C1.5 10.25 1.5 10.25 -1.125 10 C-3.5 9.25 -3.5 9.25 -4.5 8.25 C-4.6875 5.3125 -4.6875 5.3125 -4.5 2.25 C-2.5 0.25 -2.5 0.25 0 0 Z " fill="#FBD7B4" transform="translate(796.5,741.75)"/>
<path d="M0 0 C0.6875 2.3125 0.6875 2.3125 1 5 C-0.125 6.875 -0.125 6.875 -2 8 C-5.34192692 7.75546876 -6.60543557 7.39456443 -9 5 C-9.99 4.67 -10.98 4.34 -12 4 C-12 3.34 -12 2.68 -12 2 C-4.71428571 -1.57142857 -4.71428571 -1.57142857 0 0 Z " fill="#FAD8B6" transform="translate(791,598)"/>
<path d="M0 0 C1.32 0 2.64 0 4 0 C4 1.32 4 2.64 4 4 C4.66 4 5.32 4 6 4 C5.67 5.98 5.34 7.96 5 10 C4.67 9.34 4.34 8.68 4 8 C3.34 8 2.68 8 2 8 C1.67 8.99 1.34 9.98 1 11 C-0.32 11 -1.64 11 -3 11 C-3.33 9.02 -3.66 7.04 -4 5 C-3.34 5 -2.68 5 -2 5 C-1.7834375 4.0409375 -1.7834375 4.0409375 -1.5625 3.0625 C-1 1 -1 1 0 0 Z " fill="#FD8787" transform="translate(592,554)"/>
<path d="M0 0 C1 1 1 1 1.125 4 C1 7 1 7 0 8 C-5.25450902 8.45691383 -5.25450902 8.45691383 -7.9375 6.8125 C-9 5 -9 5 -8.8125 2.375 C-7.21727246 -2.28797281 -4.12381502 -0.87740745 0 0 Z " fill="#FBD7B4" transform="translate(788,429)"/>
<path d="M0 0 C2.31 0 4.62 0 7 0 C6.979375 0.7425 6.95875 1.485 6.9375 2.25 C6.99328688 4.70462279 7.3069904 6.66109261 8 9 C6.68 9.33 5.36 9.66 4 10 C3.34 8.68 2.68 7.36 2 6 C0.35 6.33 -1.3 6.66 -3 7 C-3 5.68 -3 4.36 -3 3 C-2.34 3 -1.68 3 -1 3 C-0.67 2.01 -0.34 1.02 0 0 Z " fill="#FD8685" transform="translate(572,564)"/>
<path d="M0 0 C0.6875 2.3125 0.6875 2.3125 1 5 C-0.0625 6.8125 -0.0625 6.8125 -2 8 C-5.125 8.25 -5.125 8.25 -8 8 C-9 7 -9 7 -9.25 4.625 C-9 2 -9 2 -7.875 0.125 C-5.07848948 -1.55290631 -3.06309468 -0.74875648 0 0 Z " fill="#FBD7B4" transform="translate(799,724)"/>
<path d="M0 0 C2 3 2 3 1.6875 5.125 C1 7 1 7 0 8 C-2.33297433 8.04092937 -4.66705225 8.04241723 -7 8 C-7 6.68 -7 5.36 -7 4 C-7.99 4 -8.98 4 -10 4 C-9.67 3.01 -9.34 2.02 -9 1 C-6.06295886 -0.15383759 -3.12396351 -0.32883826 0 0 Z " fill="#FBD7B4" transform="translate(762,917)"/>
<path d="M0 0 C1.85776765 3.13498292 2.20140476 5.37471432 2 9 C-0.25 9.75 -0.25 9.75 -3 10 C-5.3125 8.375 -5.3125 8.375 -7 6 C-7.25 3.25 -7.25 3.25 -7 1 C-4.53721199 -0.231394 -2.7204945 -0.07159196 0 0 Z " fill="#FBD7B4" transform="translate(753,864)"/>
<path d="M0 0 C2 2 2 2 2.1875 4.5625 C2 7 2 7 1 8 C-0.51928038 8.07179964 -2.04167482 8.08392007 -3.5625 8.0625 C-4.38878906 8.05347656 -5.21507812 8.04445313 -6.06640625 8.03515625 C-6.70449219 8.02355469 -7.34257813 8.01195312 -8 8 C-8.36075949 3.55063291 -8.36075949 3.55063291 -6.8125 1.1875 C-4.3864306 -0.40199375 -2.84602594 -0.36487512 0 0 Z " fill="#F9D9B8" transform="translate(804,918)"/>
<path d="M0 0 C2.9375 0.1875 2.9375 0.1875 3.9375 1.1875 C4.125 4.125 4.125 4.125 3.9375 7.1875 C3.2775 7.8475 2.6175 8.5075 1.9375 9.1875 C-0.67830479 8.8605244 -2.70328137 8.36710932 -5.0625 7.1875 C-5.1875 4.8125 -5.1875 4.8125 -5.0625 2.1875 C-3.0625 0.1875 -3.0625 0.1875 0 0 Z " fill="#FAD8B5" transform="translate(807.0625,791.8125)"/>
<path d="M0 0 C2.97 0.33 5.94 0.66 9 1 C8.67 2.32 8.34 3.64 8 5 C4.9317362 5.89749822 2.20730024 6.11711768 -0.984375 6.09765625 C-1.91894531 6.09443359 -2.85351562 6.09121094 -3.81640625 6.08789062 C-4.78449219 6.07951172 -5.75257813 6.07113281 -6.75 6.0625 C-7.73355469 6.05798828 -8.71710937 6.05347656 -9.73046875 6.04882812 C-12.15370791 6.03706483 -14.57682273 6.02062684 -17 6 C-17 5.67 -17 5.34 -17 5 C-11.72 5 -6.44 5 -1 5 C-0.67 3.35 -0.34 1.7 0 0 Z " fill="#F7D5BA" transform="translate(746,929)"/>
<path d="M0 0 C1.875 0.75 1.875 0.75 2.875 1.75 C2.155 8.47 2.155 8.47 0.875 9.75 C-0.79117115 9.79063832 -2.45888095 9.792721 -4.125 9.75 C-5.46054084 3.31512141 -5.46054084 3.31512141 -3.9375 0.75 C-2.125 -0.25 -2.125 -0.25 0 0 Z " fill="#FAD8B5" transform="translate(807.125,776.25)"/>
<path d="M0 0 C3.0625 0.1875 3.0625 0.1875 5.0625 2.1875 C5.0625 3.5075 5.0625 4.8275 5.0625 6.1875 C2.29999964 7.56875018 0.11518901 7.37829306 -2.9375 7.1875 C-3.5975 6.5275 -4.2575 5.8675 -4.9375 5.1875 C-4.34711977 1.29099049 -4.08138685 0.26051405 0 0 Z " fill="#FBD7B4" transform="translate(786.9375,757.8125)"/>
<path d="M0 0 C1.875 0.75 1.875 0.75 2.875 1.75 C3.0625 4.1875 3.0625 4.1875 2.875 6.75 C2.215 7.41 1.555 8.07 0.875 8.75 C-1.75 8.375 -1.75 8.375 -4.125 7.75 C-4.8125 5.4375 -4.8125 5.4375 -5.125 2.75 C-3.57413519 0.30126608 -2.92569791 -0.34419975 0 0 Z " fill="#FBD7B4" transform="translate(757.125,665.25)"/>
<path d="M0 0 C1.32 0 2.64 0 4 0 C4.33 0.66 4.66 1.32 5 2 C7.32156597 2.40729228 9.6568787 2.74438677 12 3 C11.67 4.32 11.34 5.64 11 7 C8.69 7 6.38 7 4 7 C4 6.34 4 5.68 4 5 C2.35 5 0.7 5 -1 5 C-0.67 3.35 -0.34 1.7 0 0 Z " fill="#FD8686" transform="translate(600,542)"/>
<path d="M0 0 C0 1.98 0 3.96 0 6 C-3.375 6.625 -3.375 6.625 -7 7 C-7.66 6.34 -8.32 5.68 -9 5 C-8.75 2.9375 -8.75 2.9375 -8 1 C-5.29120665 -0.35439668 -2.99066732 -0.06501451 0 0 Z " fill="#FBD7B5" transform="translate(734,911)"/>
<path d="M0 0 C2.625 0.375 2.625 0.375 5 1 C5.625 3.375 5.625 3.375 6 6 C5.34 6.66 4.68 7.32 4 8 C0.875 7.625 0.875 7.625 -2 7 C-2.125 4.625 -2.125 4.625 -2 2 C-1.34 1.34 -0.68 0.68 0 0 Z " fill="#FAD8B7" transform="translate(805,896)"/>
<path d="M0 0 C2.625 0.375 2.625 0.375 5 1 C5.625 3.375 5.625 3.375 6 6 C5.34 6.66 4.68 7.32 4 8 C1.375 7.625 1.375 7.625 -1 7 C-1.625 4.625 -1.625 4.625 -2 2 C-1.34 1.34 -0.68 0.68 0 0 Z " fill="#FD8685" transform="translate(551,613)"/>
<path d="M0 0 C1.67542976 0.28604898 3.34385343 0.61781233 5 1 C5.625 3.3125 5.625 3.3125 6 6 C5.01 7.485 5.01 7.485 4 9 C0.125 8.125 0.125 8.125 -1 7 C-1.125 4 -1.125 4 -1 1 C-0.67 0.67 -0.34 0.34 0 0 Z " fill="#FAD8B5" transform="translate(786,586)"/>
<path d="M0 0 C0.99 0 1.98 0 3 0 C3 3.63 3 7.26 3 11 C1.35 10.67 -0.3 10.34 -2 10 C-2.1953125 3.9453125 -2.1953125 3.9453125 -2 2 C-1.34 1.34 -0.68 0.68 0 0 Z " fill="#F9D6B7" transform="translate(809,755)"/>
<path d="M0 0 C1.3921875 0.3403125 1.3921875 0.3403125 2.8125 0.6875 C2.4825 2.3375 2.1525 3.9875 1.8125 5.6875 C-0.4975 6.0175 -2.8075 6.3475 -5.1875 6.6875 C-5.875 4.875 -5.875 4.875 -6.1875 2.6875 C-4.40354601 -0.35571562 -3.53300578 -0.34637312 0 0 Z " fill="#FAD8B5" transform="translate(745.1875,895.3125)"/>
<path d="M0 0 C1.134375 0.020625 2.26875 0.04125 3.4375 0.0625 C3.4375 1.0525 3.4375 2.0425 3.4375 3.0625 C2.7775 3.0625 2.1175 3.0625 1.4375 3.0625 C1.1075 4.3825 0.7775 5.7025 0.4375 7.0625 C-0.8825 7.3925 -2.2025 7.7225 -3.5625 8.0625 C-5.5625 5.0625 -5.5625 5.0625 -5.25 2.9375 C-4.0394383 -0.36403191 -3.85512717 0.06763381 0 0 Z " fill="#FAD8B5" transform="translate(769.5625,792.9375)"/>
<path d="M0 0 C0.625 3.375 0.625 3.375 1 7 C0.34 7.66 -0.32 8.32 -1 9 C-3.625 8.625 -3.625 8.625 -6 8 C-6.25 5.6875 -6.25 5.6875 -6 3 C-3.95575462 1.02389614 -2.8823175 0 0 0 Z " fill="#FAD8B6" transform="translate(720,849)"/>
<path d="M0 0 C1.67542976 0.28604898 3.34385343 0.61781233 5 1 C5.625 3.375 5.625 3.375 6 6 C5.34 6.66 4.68 7.32 4 8 C1.06546739 7.63318342 0.13562754 7.13562754 -2 5 C-1.46428571 1.46428571 -1.46428571 1.46428571 0 0 Z " fill="#FAD8B7" transform="translate(742,903)"/>
<path d="M0 0 C2.475 0.99 2.475 0.99 5 2 C5 2.33 5 2.66 5 3 C7.64 3.33 10.28 3.66 13 4 C13 2.68 13 1.36 13 0 C14.65 0.33 16.3 0.66 18 1 C17.67 2.32 17.34 3.64 17 5 C14.54159395 5.02691685 12.08348118 5.04679802 9.625 5.0625 C8.92632812 5.07087891 8.22765625 5.07925781 7.5078125 5.08789062 C2.2265625 5.11328125 2.2265625 5.11328125 0 4 C0 2.68 0 1.36 0 0 Z " fill="#F7D4BA" transform="translate(300,917)"/>
<path d="M0 0 C2 0.8125 2 0.8125 3.25 2.875 C3.4975 3.514375 3.745 4.15375 4 4.8125 C1.525 6.2975 1.525 6.2975 -1 7.8125 C-1.99 7.1525 -2.98 6.4925 -4 5.8125 C-4.1875 3.1875 -4.1875 3.1875 -4 0.8125 C-2 -0.1875 -2 -0.1875 0 0 Z " fill="#FC8887" transform="translate(546,627.1875)"/>
<path d="M0 0 C1.67542976 0.28604898 3.34385343 0.61781233 5 1 C5 1.66 5 2.32 5 3 C6.32 3 7.64 3 9 3 C9 3.66 9 4.32 9 5 C4.545 5.495 4.545 5.495 0 6 C-0.38218767 4.34385343 -0.71395102 2.67542976 -1 1 C-0.67 0.67 -0.34 0.34 0 0 Z " fill="#FAD8B5" transform="translate(768,920)"/>
<path d="M0 0 C0.99 0.33 1.98 0.66 3 1 C3 1.66 3 2.32 3 3 C3.99 3.33 4.98 3.66 6 4 C5.49396008 6.16874252 5.00016187 7.99967627 4 10 C3.01 10 2.02 10 1 10 C0.63883954 8.5225254 0.28624952 7.04295325 -0.0625 5.5625 C-0.25972656 4.73878906 -0.45695313 3.91507812 -0.66015625 3.06640625 C-0.82837891 2.04353516 -0.82837891 2.04353516 -1 1 C-0.67 0.67 -0.34 0.34 0 0 Z " fill="#F9D9B8" transform="translate(782,347)"/>
<path d="M0 0 C1.2065625 0.0309375 1.2065625 0.0309375 2.4375 0.0625 C2.81968767 1.71864657 3.15145102 3.38707024 3.4375 5.0625 C2.4375 6.0625 2.4375 6.0625 -0.125 6.125 C-1.3315625 6.0940625 -1.3315625 6.0940625 -2.5625 6.0625 C-2.94468767 4.40635343 -3.27645102 2.73792976 -3.5625 1.0625 C-2.5625 0.0625 -2.5625 0.0625 0 0 Z " fill="#FAD8B5" transform="translate(717.5625,874.9375)"/>
<path d="M0 0 C2.125 0.375 2.125 0.375 4 1 C4.625 2.875 4.625 2.875 5 5 C4.34 5.66 3.68 6.32 3 7 C0.875 6.625 0.875 6.625 -1 6 C-1.625 4.125 -1.625 4.125 -2 2 C-1.34 1.34 -0.68 0.68 0 0 Z " fill="#FAD8B6" transform="translate(777,884)"/>
<path d="M0 0 C1.2065625 0.0309375 1.2065625 0.0309375 2.4375 0.0625 C3.5625 3.8125 3.5625 3.8125 2.4375 6.0625 C0.7875 6.0625 -0.8625 6.0625 -2.5625 6.0625 C-2.94468767 4.40635343 -3.27645102 2.73792976 -3.5625 1.0625 C-2.5625 0.0625 -2.5625 0.0625 0 0 Z " fill="#FAD8B5" transform="translate(784.5625,862.9375)"/>
<path d="M0 0 C0.99 0.66 1.98 1.32 3 2 C2.25 6.75 2.25 6.75 0 9 C-0.99 9 -1.98 9 -3 9 C-3.26218749 5.85375007 -3.24754367 4.38162983 -1.5 1.6875 C-1.005 1.130625 -0.51 0.57375 0 0 Z " fill="#FAD8B7" transform="translate(779,607)"/>
<path d="M0 0 C1.32 0 2.64 0 4 0 C3.67 1.32 3.34 2.64 3 4 C-4.92 4 -12.84 4 -21 4 C-21 3.67 -21 3.34 -21 3 C-14.07 3 -7.14 3 0 3 C0 2.01 0 1.02 0 0 Z " fill="#F2D3C4" transform="translate(454,922)"/>
<path d="M0 0 C2.0625 0.4375 2.0625 0.4375 4 1 C4.33 3.31 4.66 5.62 5 8 C0.125 7.125 0.125 7.125 -1 6 C-1.125 3.5 -1.125 3.5 -1 1 C-0.67 0.67 -0.34 0.34 0 0 Z " fill="#FBD7B5" transform="translate(298,902)"/>
<path d="M0 0 C1.98 0.495 1.98 0.495 4 1 C4 6.94 4 12.88 4 19 C2.68 19.33 1.36 19.66 0 20 C-0.33 19.01 -0.66 18.02 -1 17 C-0.01 16.67 0.98 16.34 2 16 C2.33 11.38 2.66 6.76 3 2 C2.01 2 1.02 2 0 2 C0 1.34 0 0.68 0 0 Z " fill="#F4D1C0" transform="translate(805,683)"/>
<path d="M0 0 C0.04254356 1.99954746 0.04080783 4.00041636 0 6 C-1 7 -1 7 -3.5625 7.0625 C-4.7690625 7.0315625 -4.7690625 7.0315625 -6 7 C-6 5.35 -6 3.7 -6 2 C-2.25 0 -2.25 0 0 0 Z " fill="#FAD8B5" transform="translate(798,466)"/>
<path d="M0 0 C1.67542976 0.28604898 3.34385343 0.61781233 5 1 C4 4 4 4 1 6 C-1.1875 5.625 -1.1875 5.625 -3 5 C-1.125 1.125 -1.125 1.125 0 0 Z " fill="#FC8584" transform="translate(584,554)"/>
<path d="M0 0 C-0.33 1.65 -0.66 3.3 -1 5 C-2.65 5 -4.3 5 -6 5 C-6.66 3.68 -7.32 2.36 -8 1 C-5.07175348 0.02391783 -3.04386724 -0.08226668 0 0 Z " fill="#FAD8B6" transform="translate(737,503)"/>
<path d="M0 0 C-0.75 2.4375 -0.75 2.4375 -2 5 C-4.125 5.8125 -4.125 5.8125 -6 6 C-6.33 4.35 -6.66 2.7 -7 1 C-4.53721199 -0.231394 -2.7204945 -0.07159196 0 0 Z " fill="#FAD8B6" transform="translate(310,832)"/>
<path d="M0 0 C1.4540625 0.0309375 1.4540625 0.0309375 2.9375 0.0625 C2.6075 1.7125 2.2775 3.3625 1.9375 5.0625 C0.2875 5.0625 -1.3625 5.0625 -3.0625 5.0625 C-3.625 3.125 -3.625 3.125 -4.0625 1.0625 C-3.0625 0.0625 -3.0625 0.0625 0 0 Z " fill="#FD8787" transform="translate(593.0625,522.9375)"/>
<path d="M0 0 C0.66 0 1.32 0 2 0 C1.835 0.7425 1.67 1.485 1.5 2.25 C0.88074304 5.19006578 0.88074304 5.19006578 1 9 C-0.32 9 -1.64 9 -3 9 C-2.44271087 5.65626525 -1.64826111 2.96687001 0 0 Z " fill="#F9D9B7" transform="translate(708,367)"/>
<path d="M0 0 C1.32 0 2.64 0 4 0 C4 2.64 4 5.28 4 8 C3.01 7.67 2.02 7.34 1 7 C1 6.01 1 5.02 1 4 C0.34 4 -0.32 4 -1 4 C-0.67 2.68 -0.34 1.36 0 0 Z " fill="#FAD8B6" transform="translate(789,355)"/>
<path d="M0 0 C0.99 0.33 1.98 0.66 3 1 C2.34 2.98 1.68 4.96 1 7 C-0.32 6.34 -1.64 5.68 -3 5 C-2.625 3.0625 -2.625 3.0625 -2 1 C-1.34 0.67 -0.68 0.34 0 0 Z " fill="#F9D9B8" transform="translate(538,912)"/>
<path d="M0 0 C1.5 1.25 1.5 1.25 3 3 C3 4.32 3 5.64 3 7 C1.35 6.67 -0.3 6.34 -2 6 C-2.33 4.68 -2.66 3.36 -3 2 C-2.01 1.34 -1.02 0.68 0 0 Z " fill="#FAD8B7" transform="translate(312,842)"/>
<path d="M0 0 C2.475 0.99 2.475 0.99 5 2 C5 3.32 5 4.64 5 6 C3.68 6.33 2.36 6.66 1 7 C0.67 4.69 0.34 2.38 0 0 Z " fill="#FD8584" transform="translate(565,576)"/>
<path d="M0 0 C1.98 0.66 3.96 1.32 6 2 C5.67 2.99 5.34 3.98 5 5 C2.69 5 0.38 5 -2 5 C-1.125 1.125 -1.125 1.125 0 0 Z " fill="#FAD8B7" transform="translate(745,435)"/>
<path d="M0 0 C1.2065625 0.0309375 1.2065625 0.0309375 2.4375 0.0625 C1.5625 3.9375 1.5625 3.9375 0.4375 5.0625 C-1.22867115 5.10313832 -2.89638095 5.105221 -4.5625 5.0625 C-3.43829114 0.08386076 -3.43829114 0.08386076 0 0 Z " fill="#FAD8B5" transform="translate(773.5625,322.9375)"/>
<path d="M0 0 C0.99 0.33 1.98 0.66 3 1 C3 1.99 3 2.98 3 4 C2.01 4 1.02 4 0 4 C0 4.99 0 5.98 0 7 C-1.32 7 -2.64 7 -4 7 C-3.67 5.68 -3.34 4.36 -3 3 C-2.34 3 -1.68 3 -1 3 C-0.67 2.01 -0.34 1.02 0 0 Z " fill="#F9D9B8" transform="translate(496,908)"/>
<path d="M0 0 C0.66 0.33 1.32 0.66 2 1 C1.42655063 3.86724686 1.1385485 4.8614515 -1 7 C-1.99 7 -2.98 7 -4 7 C-3.6875 4.625 -3.6875 4.625 -3 2 C-2.01 1.34 -1.02 0.68 0 0 Z " fill="#FAD9B8" transform="translate(755,808)"/>
<path d="M0 0 C-0.33 1.65 -0.66 3.3 -1 5 C-3.38564077 4.42415568 -5.66682784 3.77772405 -8 3 C-8 2.34 -8 1.68 -8 1 C-5.10765685 0.17361624 -3.11257569 0 0 0 Z " fill="#FC817F" transform="translate(582,580)"/>
<path d="M0 0 C2.97 0.495 2.97 0.495 6 1 C6 1.99 6 2.98 6 4 C2.98968256 4.93423645 2.13349732 5.04449911 -1 4 C-0.67 2.68 -0.34 1.36 0 0 Z " fill="#F9D9B8" transform="translate(776,311)"/>
<path d="M0 0 C1.98 0.495 1.98 0.495 4 1 C3.67 2.65 3.34 4.3 3 6 C1.68 5.67 0.36 5.34 -1 5 C-0.67 3.35 -0.34 1.7 0 0 Z " fill="#FD8686" transform="translate(543,607)"/>
<path d="M0 0 C1.65 0.33 3.3 0.66 5 1 C4.67 2.32 4.34 3.64 4 5 C2.35 4.67 0.7 4.34 -1 4 C-0.67 2.68 -0.34 1.36 0 0 Z " fill="#FC8583" transform="translate(568,593)"/>
<path d="M0 0 C-0.33 0.99 -0.66 1.98 -1 3 C-1.66 3 -2.32 3 -3 3 C-3.33 3.99 -3.66 4.98 -4 6 C-5.32 5.34 -6.64 4.68 -8 4 C-7.67 3.01 -7.34 2.02 -7 1 C-2.25 0 -2.25 0 0 0 Z " fill="#FB817F" transform="translate(600,529)"/>
<path d="M0 0 C2.475 0.495 2.475 0.495 5 1 C5 2.65 5 4.3 5 6 C3.35 5.67 1.7 5.34 0 5 C0 3.35 0 1.7 0 0 Z " fill="#FD8989" transform="translate(612,513)"/>
<path d="M0 0 C0 1.98 0 3.96 0 6 C-1.32 6 -2.64 6 -4 6 C-4.33 4.68 -4.66 3.36 -5 2 C-2 0 -2 0 0 0 Z " fill="#FAD8B7" transform="translate(791,421)"/>
<path d="M0 0 C1.32 0.33 2.64 0.66 4 1 C4 2.65 4 4.3 4 6 C2.68 6.33 1.36 6.66 0 7 C0 4.69 0 2.38 0 0 Z " fill="#FAD8B7" transform="translate(775,327)"/>
<path d="M0 0 C-0.33 1.65 -0.66 3.3 -1 5 C-2.98 5 -4.96 5 -7 5 C-5.22678182 1.07358831 -4.52021524 0 0 0 Z " fill="#FBD7B5" transform="translate(764,844)"/>
<path d="M0 0 C0.33 0 0.66 0 1 0 C1 4.95 1 9.9 1 15 C0.67 15 0.34 15 0 15 C-0.33 13.35 -0.66 11.7 -1 10 C-1.66 10 -2.32 10 -3 10 C-3 8.68 -3 7.36 -3 6 C-2.34 6 -1.68 6 -1 6 C-0.67 4.02 -0.34 2.04 0 0 Z " fill="#F2D4C3" transform="translate(809,710)"/>
<path d="M0 0 C1.65 0.33 3.3 0.66 5 1 C5 1.99 5 2.98 5 4 C1.25 5.125 1.25 5.125 -1 4 C-0.67 2.68 -0.34 1.36 0 0 Z " fill="#FAD8B6" transform="translate(793,701)"/>
<path d="M0 0 C1.65 0 3.3 0 5 0 C4.8125 1.875 4.8125 1.875 4 4 C1.4375 5.25 1.4375 5.25 -1 6 C-0.67 4.02 -0.34 2.04 0 0 Z " fill="#FA8886" transform="translate(514,649)"/>
<path d="M0 0 C2.16874252 0.50603992 3.99967627 0.99983813 6 2 C6 2.99 6 3.98 6 5 C3.03 4.505 3.03 4.505 0 4 C0 2.68 0 1.36 0 0 Z " fill="#FC8584" transform="translate(532,627)"/>
<path d="M0 0 C0.99 0 1.98 0 3 0 C3 1.65 3 3.3 3 5 C1.68 5.33 0.36 5.66 -1 6 C-1.33 5.01 -1.66 4.02 -2 3 C-1.34 2.01 -0.68 1.02 0 0 Z " fill="#F9D9B8" transform="translate(738,490)"/>
<path d="M0 0 C2.64 0.33 5.28 0.66 8 1 C7.67 2.32 7.34 3.64 7 5 C4.69 4.34 2.38 3.68 0 3 C0 2.01 0 1.02 0 0 Z " fill="#F9D9B8" transform="translate(684,303)"/>
<path d="M0 0 C1.67542976 0.28604898 3.34385343 0.61781233 5 1 C4.34 2.32 3.68 3.64 3 5 C2.01 5 1.02 5 0 5 C-0.5625 3.0625 -0.5625 3.0625 -1 1 C-0.67 0.67 -0.34 0.34 0 0 Z " fill="#F8DABA" transform="translate(736,577)"/>
<path d="M0 0 C-0.33 1.32 -0.66 2.64 -1 4 C-2.65 3.67 -4.3 3.34 -6 3 C-6 2.01 -6 1.02 -6 0 C-3 -1 -3 -1 0 0 Z " fill="#FAD8B6" transform="translate(671,267)"/>
<path d="M0 0 C1.98 0.495 1.98 0.495 4 1 C4 2.32 4 3.64 4 5 C2.35 4.67 0.7 4.34 -1 4 C-0.67 2.68 -0.34 1.36 0 0 Z " fill="#F9D9B8" transform="translate(502,878)"/>
<path d="M0 0 C1.65 0 3.3 0 5 0 C4.67 1.65 4.34 3.3 4 5 C2.68 4.67 1.36 4.34 0 4 C0 2.68 0 1.36 0 0 Z " fill="#FAD8B7" transform="translate(391,874)"/>
<path d="M0 0 C1.32 0 2.64 0 4 0 C3.690625 0.70125 3.38125 1.4025 3.0625 2.125 C1.96697322 5.08936657 1.43577008 7.87698108 1 11 C0.67 11 0.34 11 0 11 C0 7.37 0 3.74 0 0 Z " fill="#F5D6BF" transform="translate(242,794)"/>
<path d="M0 0 C2.475 0.495 2.475 0.495 5 1 C5 2.32 5 3.64 5 5 C3.68 4.67 2.36 4.34 1 4 C0.67 2.68 0.34 1.36 0 0 Z " fill="#F9DABA" transform="translate(784,746)"/>
<path d="M0 0 C1.65 0 3.3 0 5 0 C5 1.32 5 2.64 5 4 C3.35 4 1.7 4 0 4 C0 2.68 0 1.36 0 0 Z " fill="#FAD8B6" transform="translate(624,328)"/>
<path d="M0 0 C2.475 0.495 2.475 0.495 5 1 C4.67 2.32 4.34 3.64 4 5 C2.68 4.67 1.36 4.34 0 4 C0 2.68 0 1.36 0 0 Z " fill="#FAD5B5" transform="translate(774,235)"/>
<path d="M0 0 C0.99 0 1.98 0 3 0 C3 1.65 3 3.3 3 5 C1.68 5 0.36 5 -1 5 C-0.67 3.35 -0.34 1.7 0 0 Z " fill="#FAD8B6" transform="translate(537,856)"/>
<path d="M0 0 C1.65 0 3.3 0 5 0 C4.67 1.32 4.34 2.64 4 4 C2.68 4.33 1.36 4.66 0 5 C0 3.35 0 1.7 0 0 Z " fill="#FD8887" transform="translate(561,586)"/>
<path d="M0 0 C1.32 0 2.64 0 4 0 C3.67 1.65 3.34 3.3 3 5 C1.68 4.67 0.36 4.34 -1 4 C-0.67 2.68 -0.34 1.36 0 0 Z " fill="#FD8686" transform="translate(574,585)"/>
<path d="M0 0 C1.65 0.33 3.3 0.66 5 1 C4.01 1.495 4.01 1.495 3 2 C2.34227572 5.02934491 2.34227572 5.02934491 2 8 C0.23537317 4.91190305 0 3.76687864 0 0 Z " fill="#F7DBBE" transform="translate(788,541)"/>
<path d="M0 0 C0.33 0 0.66 0 1 0 C1 4.62 1 9.24 1 14 C0.01 14 -0.98 14 -2 14 C-1.34 9.38 -0.68 4.76 0 0 Z " fill="#F4D2BF" transform="translate(791,317)"/>
<path d="M0 0 C0.99 0.33 1.98 0.66 3 1 C2.67 2.65 2.34 4.3 2 6 C1.01 6 0.02 6 -1 6 C-1.042721 4.33388095 -1.04063832 2.66617115 -1 1 C-0.67 0.67 -0.34 0.34 0 0 Z " fill="#F9D9B8" transform="translate(658,314)"/>
<path d="M0 0 C1.65 0.33 3.3 0.66 5 1 C5 2.32 5 3.64 5 5 C4.34 5 3.68 5 3 5 C3 4.34 3 3.68 3 3 C1.68 3 0.36 3 -1 3 C-0.67 2.01 -0.34 1.02 0 0 Z " fill="#F9D9B8" transform="translate(765,294)"/>
<path d="M0 0 C2.31 0.33 4.62 0.66 7 1 C6.67 1.99 6.34 2.98 6 4 C3.69 3.67 1.38 3.34 -1 3 C-0.67 2.01 -0.34 1.02 0 0 Z " fill="#FAD8B7" transform="translate(775,894)"/>
<path d="M0 0 C1.32 0 2.64 0 4 0 C3.67 1.65 3.34 3.3 3 5 C1.68 4.34 0.36 3.68 -1 3 C-0.67 2.01 -0.34 1.02 0 0 Z " fill="#FAD8B6" transform="translate(803,657)"/>
<path d="M0 0 C0.33 0 0.66 0 1 0 C1 4.95 1 9.9 1 15 C0.01 15 -0.98 15 -2 15 C-1.67 14.01 -1.34 13.02 -1 12 C-0.77674186 9.94106379 -0.59294241 7.87766347 -0.4375 5.8125 C-0.35371094 4.72582031 -0.26992188 3.63914062 -0.18359375 2.51953125 C-0.12300781 1.68808594 -0.06242188 0.85664062 0 0 Z " fill="#F3D1C1" transform="translate(803,579)"/>
<path d="M0 0 C0 1.32 0 2.64 0 4 C-2.97 3.505 -2.97 3.505 -6 3 C-6 2.34 -6 1.68 -6 1 C-4 0 -4 0 0 0 Z " fill="#FC8584" transform="translate(592,513)"/>
<path d="M0 0 C-0.33 1.32 -0.66 2.64 -1 4 C-2.9375 3.6875 -2.9375 3.6875 -5 3 C-5.33 2.01 -5.66 1.02 -6 0 C-2.25 -1.125 -2.25 -1.125 0 0 Z " fill="#FAD8B5" transform="translate(720,408)"/>
<path d="M0 0 C1.65 0 3.3 0 5 0 C5 0.99 5 1.98 5 3 C3.35 3.33 1.7 3.66 0 4 C0 2.68 0 1.36 0 0 Z " fill="#FAD8B7" transform="translate(619,299)"/>
<path d="M0 0 C1.2065625 0.0309375 1.2065625 0.0309375 2.4375 0.0625 C2.4375 2.7025 2.4375 5.3425 2.4375 8.0625 C2.06625 7.1653125 2.06625 7.1653125 1.6875 6.25 C0.27379988 3.77602479 -1.21305383 2.62879745 -3.5625 1.0625 C-2.5625 0.0625 -2.5625 0.0625 0 0 Z " fill="#EFD8CB" transform="translate(788.5625,294.9375)"/>
<path d="M0 0 C2.475 0.495 2.475 0.495 5 1 C4.67 2.32 4.34 3.64 4 5 C2.68 4.34 1.36 3.68 0 3 C0 2.01 0 1.02 0 0 Z " fill="#F9D9B8" transform="translate(652,246)"/>
<path d="M0 0 C-0.33 1.65 -0.66 3.3 -1 5 C-2.32 4.67 -3.64 4.34 -5 4 C-4.67 3.01 -4.34 2.02 -4 1 C-2 0 -2 0 0 0 Z " fill="#F9D9B8" transform="translate(564,914)"/>
<path d="M0 0 C0.99 0 1.98 0 3 0 C3.66 1.65 4.32 3.3 5 5 C3.68 5 2.36 5 1 5 C0.67 3.35 0.34 1.7 0 0 Z " fill="#F9DABA" transform="translate(771,804)"/>
<path d="M0 0 C0.33 0.99 0.66 1.98 1 3 C1.66 3 2.32 3 3 3 C2.39816251 5.02045442 1.72693904 7.02111039 1 9 C0.01 9.495 0.01 9.495 -1 10 C-0.67 6.7 -0.34 3.4 0 0 Z " fill="#F5716A" transform="translate(614,555)"/>
<path d="M0 0 C1.32 0.66 2.64 1.32 4 2 C4 2.66 4 3.32 4 4 C2.35 4.33 0.7 4.66 -1 5 C-0.67 3.35 -0.34 1.7 0 0 Z " fill="#FAD8B7" transform="translate(678,371)"/>
<path d="M0 0 C1.32 0.66 2.64 1.32 4 2 C3.67 2.99 3.34 3.98 3 5 C1.68 4.67 0.36 4.34 -1 4 C-0.67 2.68 -0.34 1.36 0 0 Z " fill="#F9D9BA" transform="translate(735,361)"/>
<path d="M0 0 C0.33 0 0.66 0 1 0 C1 1.98 1 3.96 1 6 C-0.98 6.99 -0.98 6.99 -3 8 C-3 6.68 -3 5.36 -3 4 C-2.01 4 -1.02 4 0 4 C0 2.68 0 1.36 0 0 Z " fill="#F6D3BB" transform="translate(792,339)"/>
<path d="M0 0 C0.99 0 1.98 0 3 0 C3 1.65 3 3.3 3 5 C1.68 5 0.36 5 -1 5 C-0.67 3.35 -0.34 1.7 0 0 Z " fill="#FBD7B5" transform="translate(693,272)"/>
<path d="M0 0 C1.32 0.33 2.64 0.66 4 1 C4 2.32 4 3.64 4 5 C2.68 5 1.36 5 0 5 C0 3.35 0 1.7 0 0 Z " fill="#FBD7B4" transform="translate(742,256)"/>
<path d="M0 0 C1.32 0 2.64 0 4 0 C3.67 1.32 3.34 2.64 3 4 C1.68 4 0.36 4 -1 4 C-0.67 2.68 -0.34 1.36 0 0 Z " fill="#FAD8B7" transform="translate(360,902)"/>
<path d="M0 0 C1.98 0.495 1.98 0.495 4 1 C3.34 2.32 2.68 3.64 2 5 C1.01 4.67 0.02 4.34 -1 4 C-0.67 2.68 -0.34 1.36 0 0 Z " fill="#F8DABA" transform="translate(444,863)"/>
<path d="M0 0 C0.99 0 1.98 0 3 0 C2.67 1.65 2.34 3.3 2 5 C1.01 5 0.02 5 -1 5 C-0.67 3.35 -0.34 1.7 0 0 Z " fill="#FAD8B6" transform="translate(413,815)"/>
<path d="M0 0 C1.65 0 3.3 0 5 0 C4.67 1.32 4.34 2.64 4 4 C2.68 3.67 1.36 3.34 0 3 C0 2.01 0 1.02 0 0 Z " fill="#F9D9B8" transform="translate(679,561)"/>
<path d="M0 0 C1.32 0.66 2.64 1.32 4 2 C3.67 2.99 3.34 3.98 3 5 C1.68 4.67 0.36 4.34 -1 4 C-1 1 -1 1 0 0 Z " fill="#F9D9B8" transform="translate(749,456)"/>
<path d="M0 0 C0.99 0.33 1.98 0.66 3 1 C3 2.32 3 3.64 3 5 C1.68 4.67 0.36 4.34 -1 4 C-0.67 2.68 -0.34 1.36 0 0 Z " fill="#FAD8B7" transform="translate(450,898)"/>
<path d="M0 0 C1.32 0.33 2.64 0.66 4 1 C3.67 2.32 3.34 3.64 3 5 C2.01 4.67 1.02 4.34 0 4 C0 2.68 0 1.36 0 0 Z " fill="#FAD8B7" transform="translate(537,891)"/>
<path d="M0 0 C1.98 0.495 1.98 0.495 4 1 C3.67 1.99 3.34 2.98 3 4 C1.68 4 0.36 4 -1 4 C-0.67 2.68 -0.34 1.36 0 0 Z " fill="#F9D9B9" transform="translate(333,873)"/>
<path d="M0 0 C0.99 0 1.98 0 3 0 C2.67 1.65 2.34 3.3 2 5 C1.01 4.67 0.02 4.34 -1 4 C-0.67 2.68 -0.34 1.36 0 0 Z " fill="#FAD8B7" transform="translate(267,791)"/>
<path d="M0 0 C2.475 0.495 2.475 0.495 5 1 C4.67 1.99 4.34 2.98 4 4 C2.68 3.67 1.36 3.34 0 3 C0 2.01 0 1.02 0 0 Z " fill="#FAD8B7" transform="translate(256,771)"/>
<path d="M0 0 C2.475 0.495 2.475 0.495 5 1 C5 1.99 5 2.98 5 4 C3.35 3.67 1.7 3.34 0 3 C0 2.01 0 1.02 0 0 Z " fill="#F8DABB" transform="translate(682,619)"/>
<path d="M0 0 C1.32 0.33 2.64 0.66 4 1 C3.67 2.32 3.34 3.64 3 5 C2.01 4.67 1.02 4.34 0 4 C0 2.68 0 1.36 0 0 Z " fill="#F8DABC" transform="translate(761,538)"/>
<path d="M0 0 C0.99 0.33 1.98 0.66 3 1 C3 3.64 3 6.28 3 9 C0.87491756 5.81237635 0.4979837 3.73487777 0 0 Z " fill="#F4D1BE" transform="translate(795,447)"/>
<path d="M0 0 C1.98 0.495 1.98 0.495 4 1 C3.67 1.99 3.34 2.98 3 4 C1.68 4 0.36 4 -1 4 C-0.67 2.68 -0.34 1.36 0 0 Z " fill="#FAD8B6" transform="translate(657,424)"/>
<path d="M0 0 C1.98 0.495 1.98 0.495 4 1 C4 1.99 4 2.98 4 4 C2.35 3.67 0.7 3.34 -1 3 C-0.67 2.01 -0.34 1.02 0 0 Z " fill="#FAD8B5" transform="translate(757,418)"/>
</svg>
